<svg xmlns="http://www.w3.org/2000/svg">
<defs>
<font id="UTMAvo-Italic" horiz-adv-x="1341" >
  <font-face 
    font-family="UTM Avo"
    font-weight="400"
    font-style="italic"
    font-stretch="normal"
    units-per-em="2048"
    panose-1="2 4 6 3 5 5 6 9 2 4"
    ascent="1638"
    descent="-410"
    x-height="1120"
    cap-height="1516"
    bbox="-174 -440 4956 2343"
    underline-thickness="109"
    underline-position="-359"
    slope="-12"
    unicode-range="U+0020-1EF9"
  />
<missing-glyph horiz-adv-x="5040" 
d="M3785 2045h10q35 -10 26 -52q-2 -12 -44 -57h-28q5 24 40 54l4 10q-2 13 -7 15h-9q-8 0 -14 -19h-30q16 49 52 49zM2447 2016l23 -31q-4 -16 -47 -30h-19l-56 12l-14 -12l-22 25q17 29 49 29h11l39 -11h2q10 0 34 18zM889 1980h142l-13 -60h-94l-16 -75h89l-13 -59h-89
l-27 -129l-6 -5h-49l69 323zM1576 1980h43l5 -5l-17 -78h30l-11 -52h-30l-40 -188l-7 -5h-49l41 193h-25l11 52h25l17 78zM2042 1980h42l3 -5l-20 -94h3q28 24 59 24h2q58 0 68 -71l-7 -39l-30 -143h-52l24 115q17 80 -25 80h-7q-43 0 -61 -86l-23 -109h-51l69 323z
M2621 1980h49l4 -5l-48 -222q0 -51 35 -51q45 7 56 59l46 214l6 5h49l-46 -216q-18 -85 -90 -112q-17 -8 -37 -8q-47 0 -70 55q-9 24 -2 57zM2856 1980h159l-13 -60h-56l-57 -268h-53l57 268h-55l12 55zM3042 1980h71q6 -4 29 -251h2l134 251h73l-70 -328h-54l51 242h-2
l-125 -242h-44q-4 0 -19 182l-7 60h-3l-51 -242h-55zM4181 1980h52l-70 -328h-45l-4 5l2 11l4 2v14q-38 -40 -87 -40q-67 0 -80 91l3 39l1 3q19 94 118 125l24 3q35 0 56 -32h3zM2467 1928h36l2 -6l-10 -49h-45l-47 -221h-48l5 23q-30 -31 -66 -31q-86 14 -68 97l33 156h51
l-22 -104q-17 -79 8 -86l17 -5h6q26 0 46 36l9 26l28 133h53l5 25zM3886 1928l-12 -55h-31l-47 -221h-47l5 25h-2q-22 -33 -64 -33q-68 0 -69 78l3 29l31 146h52l-25 -120q-11 -50 4 -68l20 -7h9q42 0 56 69l27 126h27q4 0 10 28l4 3h49zM1163 1905q68 0 86 -77q6 -18 1 -54
q-19 -88 -117 -127l-33 -3q-63 0 -85 73q-8 22 -1 52l2 10q20 94 128 126h19zM1416 1905h3q74 0 61 -101l-32 -152h-51l25 119q16 76 -26 76h-5q-44 0 -60 -76l-25 -119h-52l52 245h46l-4 -21q36 29 68 29zM1871 1905h7q72 0 86 -89h-60q-10 31 -36 31h-17q-56 -14 -66 -61

<glyph glyph-name=".notdef" horiz-adv-x="5040" 
d="M3785 2045h10q35 -10 26 -52q-2 -12 -44 -57h-28q5 24 40 54l4 10q-2 13 -7 15h-9q-8 0 -14 -19h-30q16 49 52 49zM2447 2016l23 -31q-4 -16 -47 -30h-19l-56 12l-14 -12l-22 25q17 29 49 29h11l39 -11h2q10 0 34 18zM889 1980h142l-13 -60h-94l-16 -75h89l-13 -59h-89
l-27 -129l-6 -5h-49l69 323zM1576 1980h43l5 -5l-17 -78h30l-11 -52h-30l-40 -188l-7 -5h-49l41 193h-25l11 52h25l17 78zM2042 1980h42l3 -5l-20 -94h3q28 24 59 24h2q58 0 68 -71l-7 -39l-30 -143h-52l24 115q17 80 -25 80h-7q-43 0 -61 -86l-23 -109h-51l69 323z
M2621 1980h49l4 -5l-48 -222q0 -51 35 -51q45 7 56 59l46 214l6 5h49l-46 -216q-18 -85 -90 -112q-17 -8 -37 -8q-47 0 -70 55q-9 24 -2 57zM2856 1980h159l-13 -60h-56l-57 -268h-53l57 268h-55l12 55zM3042 1980h71q6 -4 29 -251h2l134 251h73l-70 -328h-54l51 242h-2
l-125 -242h-44q-4 0 -19 182l-7 60h-3l-51 -242h-55zM4181 1980h52l-70 -328h-45l-4 5l2 11l4 2v14q-38 -40 -87 -40q-67 0 -80 91l3 39l1 3q19 94 118 125l24 3q35 0 56 -32h3zM2467 1928h36l2 -6l-10 -49h-45l-47 -221h-48l5 23q-30 -31 -66 -31q-86 14 -68 97l33 156h51
l-22 -104q-17 -79 8 -86l17 -5h6q26 0 46 36l9 26l28 133h53l5 25zM3886 1928l-12 -55h-31l-47 -221h-47l5 25h-2q-22 -33 -64 -33q-68 0 -69 78l3 29l31 146h52l-25 -120q-11 -50 4 -68l20 -7h9q42 0 56 69l27 126h27q4 0 10 28l4 3h49zM1163 1905q68 0 86 -77q6 -18 1 -54
q-19 -88 -117 -127l-33 -3q-63 0 -85 73q-8 22 -1 52l2 10q20 94 128 126h19zM1416 1905h3q74 0 61 -101l-32 -152h-51l25 119q16 76 -26 76h-5q-44 0 -60 -76l-25 -119h-52l52 245h46l-4 -21q36 29 68 29zM1871 1905h7q72 0 86 -89h-60q-10 31 -36 31h-17q-56 -14 -66 -61
l-6 -15q-2 -69 47 -69h9q22 0 52 27h40l3 3h3l1 -3l3 3l2 -3l3 3v-7q-50 -81 -127 -81q-76 0 -90 94l4 36l1 3q18 85 102 120q17 8 39 8zM3546 1905h2q49 0 57 -60l-3 -14h-52q3 16 -13 16h-4q-14 0 -21 -13l-3 -13q-2 -9 60 -35q26 -19 18 -59q-12 -58 -78 -80l-24 -3
q-73 12 -58 83h54q-4 -20 22 -25h4q19 0 28 23q5 22 -58 44q-28 27 -22 59q14 66 91 77zM4608 1905q55 0 63 -63q3 -18 -6 -65l-27 -125h-52l24 112q17 83 -23 83h-11q-33 0 -51 -54l-30 -141h-52l1 5h-2l2 2l51 238h47l-4 -21q31 29 70 29zM4837 1905h5q40 0 60 -40l4 18
l-2 3l5 11h47l-44 -208q-21 -97 -113 -132l-34 -4h-7q-70 0 -87 80h59q19 -22 40 -23h13q22 0 48 22q17 13 33 52h-3q-41 -40 -82 -40q-57 0 -81 70q-6 18 0 63q18 88 113 125zM4254 1897h53l-29 -136q-6 -59 28 -59h7q46 0 65 93l22 102h51l-52 -245h-47l-1 10h3l-2 3l1 5
l3 2l1 3h-4q-5 -23 -64 -31h-3q-59 0 -68 75l16 85zM1066 1771q-4 -69 49 -69h7q62 14 72 65l4 15q0 65 -46 65h-5q-58 0 -81 -76zM4007 1774q-2 -72 46 -72h5q58 0 82 75q10 49 -37 70h-22q-37 0 -68 -57zM4751 1774q-7 -72 50 -72h5q61 12 74 72q13 61 -44 73h-14
q-59 -16 -69 -62zM4272 1620h52l-12 -57h-52zM1352 1402q40 -11 32 -49v-4q-4 -17 -45 -60h-28q5 25 43 57l1 7q3 12 -3 15h-12q-11 -4 -14 -19h-28l1 6q7 32 42 44zM3633 1339q92 0 117 -99h-60q-28 42 -71 42q-55 0 -101 -68q-15 -22 -20 -47q-17 -78 57 -110l18 -1
q36 0 84 39h61q-65 -97 -159 -97q-93 0 -117 112q-4 31 3 62q21 97 122 152q32 15 66 15zM3948 1339q57 0 93 -47q36 -51 22 -115l-4 -20q-19 -89 -122 -146q-36 -13 -66 -13q-89 0 -117 101q-6 33 0 60l4 18q21 98 130 151q31 11 60 11zM2545 1337h2l45 -11h3q11 0 28 11
l10 -36q-22 -19 -39 -19h-3l-52 10l-21 -7l-12 36q21 16 39 16zM999 1334h19q118 0 124 -26q19 -26 12 -62q-22 -57 -42 -57l-2 -6q42 -23 33 -66l-4 -18q-13 -63 -87 -88l-55 -5h-67zM2833 1334h53l-46 -217q-7 -61 32 -61q29 0 53 39l9 30l43 203l5 6h45l4 -6l-36 -171
q-25 -118 -69 -133q-29 -26 -69 -26q-55 0 -75 76l8 54zM3088 1334h59q4 0 72 -237h4l50 237h50l3 -6l-68 -322h-58q-19 48 -75 238h-3l-50 -238h-53zM3384 1334h54l-69 -328h-54zM4142 1334h8q155 0 166 -40q21 -11 31 -75l-4 -36l-2 -11l2 -2q-19 -94 -113 -149
q-38 -15 -102 -15h-55zM4424 1334h153l-12 -60h-103l-16 -75h101l-12 -57h-101l-16 -74l3 -5h99l-12 -57h-157l68 322zM3813 1175l-3 -10q-16 -76 56 -108l19 -1q68 0 115 86l7 20l3 15q13 61 -40 94q-10 8 -37 11q-66 0 -113 -83zM1041 1274l-15 -67h9q54 0 60 28l6 14
q-5 25 -23 25h-37zM4183 1274l-44 -206l1 -3v-2q104 0 138 76l5 15l6 29q7 34 -17 68q-20 23 -73 23h-16zM1308 1259h5q38 0 63 -40l7 32h49l-52 -245h-49l6 32q-44 -40 -88 -40q-75 0 -80 97l2 36q19 89 112 125zM1581 1259h3q74 0 62 -102l-32 -151h-51l27 128
q14 67 -28 67h-10q-34 0 -52 -62l-28 -133h-52l52 245h47l-5 -21q34 29 67 29zM1810 1259h5q45 0 63 -40l7 32h47l-47 -219q-20 -95 -131 -126h-16q-74 0 -90 82h59q20 -25 38 -25h14q52 0 81 77q-42 -42 -85 -42q-60 0 -84 81l2 44l4 16q17 79 110 117zM2179 1259h2
q43 0 54 -37h2q39 37 76 37h4q57 0 68 -55q2 -25 -2 -45l-32 -153h-52l29 138q9 44 -11 55l-12 2h-15q-32 0 -50 -65l-27 -130h-52l29 136q12 59 -31 59h-8q-32 0 -48 -57l-29 -138h-54l52 245h50l-5 -21h2q11 24 60 29zM2549 1259q47 0 66 -42l8 34h47l-52 -245h-47l6 32
q-44 -40 -86 -40q-74 0 -83 92l3 41q19 90 112 125zM1222 1117q-10 -48 48 -61h4q45 0 72 46l6 15l5 22q1 62 -44 62h-14q-41 0 -71 -57zM1727 1128q-11 -48 28 -68l17 -4h5q47 0 75 57l5 23q3 65 -44 65h-12q-50 0 -74 -73zM2465 1131l-3 -14q2 -61 44 -61h14q61 12 72 64
l2 11q10 45 -23 65l-17 5h-10q-66 -8 -79 -70zM1014 1150l-17 -82q-1 -5 6 -5q77 0 86 45q8 34 -38 42h-37zM3126 753l18 -28l-63 -55q-15 12 -21 26zM1678 727l74 -54q-3 -15 -30 -42l-76 54q27 41 32 42zM2997 693h38l42 -60h-54l-15 26l-29 -26h-54q67 60 72 60z
M3569 693h40l43 -60h-54l-18 26h-1q-1 -5 -25 -26h-54zM767 685h52q8 -4 18 -137l11 -110q11 8 55 100l79 147h54v-2l-181 -326h-44zM1304 685h51l-11 -54h-51zM1499 685h46l5 -5l-68 -323h-52zM2462 685h45l3 -5l-16 -78h31l-11 -52h-31l-41 -193h-53l41 193h-26l11 52h26
l16 78zM2570 685h52l-20 -98h2q27 23 58 23h3q57 0 66 -71l-5 -38l-30 -144h-52l24 115q17 81 -22 81h-10q-42 0 -60 -87l-23 -109h-52zM2809 685h52l-11 -54h-52zM3173 685h44l5 -5l-16 -78h29l-11 -52h-29l-41 -193h-54l41 193h-27l11 52h27l16 78zM3379 685h52l-69 -328
h-52zM4102 685h52l-69 -328h-52zM4461 685h51l-11 -54h-51zM1684 610h5q83 0 89 -102l-2 -23l-2 -11q-18 -83 -111 -120l-36 -5q-76 0 -90 97l2 32q21 97 121 130zM1940 610h4q53 0 66 -60q1 -25 -11 -81l-23 -112h-54l31 146q3 50 -27 50h-10q-38 0 -54 -57l-29 -139h-54
l52 245h49l-5 -21q32 29 65 29zM2175 610h4q45 0 55 -39h3l7 31h49l-44 -206q-22 -102 -118 -135l-28 -3h-5q-73 0 -89 81h52l33 -20l14 -3h14q50 0 76 72q-41 -39 -81 -39q-62 0 -82 76q-6 23 1 60q18 85 112 123zM2995 610h2q82 0 89 -104l-3 -25l-8 -27h-172
q6 -45 36 -45l13 -3q29 0 54 22h57l-1 -3q-51 -76 -124 -76q-77 0 -90 97l5 28l1 8q11 49 51 89q42 39 90 39zM3558 610h5q41 0 62 -39h2l7 31h47l-52 -245h-47l6 31h-2q-43 -39 -85 -39q-71 0 -82 89l3 36l3 14q18 86 109 120zM3840 610h7q88 0 80 -128l-2 -1l-3 -15
q-14 -65 -89 -106q-23 -11 -48 -11q-34 0 -57 32l-21 -99l-6 -5h-49l69 325h49l-6 -28q38 36 76 36zM4280 610q44 0 67 -39l7 31h49l-52 -245h-49l6 31q-43 -39 -85 -39q-92 0 -80 132q18 84 99 121q16 8 38 8zM1050 602h50l-29 -136q-10 -60 29 -60h5q44 0 63 87l23 109h52
l-52 -245h-47l5 24h-5q-5 -23 -63 -32h-3q-55 0 -68 68q4 35 17 99l18 81zM1287 602h51l-52 -245h-51zM2792 602h52l-52 -245h-52zM4444 602h51l-52 -245h-51zM1596 488l-4 -16q-1 -66 45 -66h4q59 0 82 76q2 71 -44 71h-11q-62 -16 -72 -65zM2087 472q1 -66 45 -66h11
q48 0 75 75v1q2 71 -44 71h-14q-39 0 -68 -57zM2912 506h122l1 2q-7 45 -50 45h-7q-35 0 -66 -47zM3474 474q-2 -68 46 -68h5q52 0 78 63l3 12q5 72 -42 72h-16q-59 -14 -69 -63zM3743 478q-3 -72 46 -72h3q50 0 78 60l5 22q9 43 -36 65h-22q-47 0 -73 -72zM4195 472
q-4 -66 52 -66q43 0 71 48l5 15l4 16q11 54 -38 68h-18q-42 0 -71 -60zM3484 321h51l-11 -52h-51zM4205 321h51l-11 -52h-51zM2761 133h4q35 0 32 -50v-2q-3 -16 -33 -41l-13 -17h-28q5 25 40 56l3 2v2q1 19 -5 19h-10q-8 0 -13 -19h-30q17 50 53 50zM1570 116l40 -60
l-30 -19l-41 52zM369 79h4q64 -48 72 -60l-28 -37q-78 49 -76 58zM3507 79l73 -58l-26 -39q-10 0 -79 55q22 36 32 42zM4594 76l10 -42l-102 -52l-12 39l105 58zM1215 53h51l-4 -19l4 -5h14l-8 -36h-14l-6 -5l-59 -279h-46l7 31q-43 -40 -90 -40q-72 0 -80 105l3 26
q22 102 129 131h14q33 0 59 -33l12 59l-5 5h-43l8 36h49zM1489 45h40l43 -61h-53l-17 27l-29 -27h-53zM2650 45h33q12 0 50 -61h-54l-17 27q-23 -21 -25 -27h-58l1 4zM57 37h160l-13 -60h-56l-57 -268h-50l-3 5l52 245l3 3v2l-1 2l2 3l-1 2l2 3l-1 3h-54l11 54zM707 37h47
l-16 -73l2 -2l-3 -3l-1 -3l2 -2l-3 -3v-3l1 -2v-2l-3 -3l2 -3h3q22 24 56 24h3q53 0 64 -58q4 -17 -2 -42l-32 -153h-52l27 127q14 68 -26 68h-8q-43 0 -61 -86l-23 -109h-52l68 322zM1305 37h47l3 -6l-10 -49h-52zM1995 37h52l-42 -198l94 115h62l-103 -118l63 -125v-2h-70
q-5 22 -50 115l-24 -115h-52zM2279 37l-21 -99q29 24 58 24q57 0 68 -56q6 -19 -7 -77l-25 -120h-54l28 133q13 62 -28 62h-11q-31 0 -48 -55l-30 -140h-53l67 314l-1 3l1 3l1 2v3l2 3h53zM2466 37h51l-12 -55h-51zM3156 37h51l-23 -108q34 33 75 33h3q75 0 85 -94l-3 -37
q-16 -75 -90 -120q-32 -11 -51 -11q-41 0 -63 40l-7 -31h-47zM4283 37h52l-21 -99h2q28 24 59 24h3q60 0 66 -74l-7 -41l-29 -138h-52l24 111q17 82 -15 82l-10 2h-12q-37 0 -54 -80l-24 -115h-52zM321 -38h3l-13 -58h-5q-42 0 -54 -57l-29 -138h-53l52 245h47l-4 -21
q24 29 56 29zM556 -38q71 0 67 -87l-35 -166h-51l29 136q6 59 -29 59h-6q-45 0 -62 -84l-24 -111h-52l52 245h50l-4 -21q31 29 65 29zM1496 -38q72 0 85 -94l-4 -39q-7 -24 -12 -24h-169q7 -47 52 -47q24 0 53 21h57q-50 -79 -125 -79q-82 0 -91 105l8 37q17 81 114 117z
M2649 -38h5q77 0 86 -97l-2 -26l-5 -21l-6 -13h-170q8 -47 43 -47h12q21 0 47 21h59q-51 -79 -122 -79q-84 0 -93 102l4 29q20 93 118 128zM2907 -38h4q54 0 65 -60q2 -25 -10 -82l-24 -111h-54l29 138q10 48 -23 57h-11q-38 0 -55 -57l-29 -138h-54l52 245h50l-4 -21
q31 29 64 29zM3500 -38h6q40 0 61 -40h2l7 32h47l-52 -245h-47l7 31h-2q-43 -40 -87 -40q-71 0 -82 90l4 37l3 12q17 82 101 117q13 6 32 6zM3773 -38h4q62 0 65 -78l-15 -84l-19 -91h-54l29 138q10 48 -26 57h-9q-38 0 -53 -52l-30 -143h-54l52 245h49l-4 -21q32 29 65 29z
M4125 -38h1q74 0 84 -93l-5 -40q-18 -88 -110 -126l-26 -3q-41 0 -61 34l-22 -106h-52l69 326h47l-6 -29q38 37 81 37zM4706 -38h5q34 0 55 -37q35 37 77 37h6q56 0 65 -66l-5 -51l-29 -136h-52l26 122q15 73 -24 73h-7q-35 0 -51 -50l-30 -140l-6 -5h-48l30 140
q9 42 -20 55h-17q-40 0 -56 -77l-25 -118h-51l52 245h47l-4 -21q28 29 62 29zM349 -46h49l4 -6l-50 -234l-6 -5h-49zM1287 -46h52l-52 -245h-52zM1639 -46h52l-29 -136q-9 -60 30 -60h4q44 0 62 81l24 115h52l-52 -245h-47l5 24h-5q-19 -33 -66 -33q-52 0 -66 63q-2 12 3 34
zM2448 -46h51l-52 -245h-51zM4505 -46h51l-52 -245h-51zM1041 -169q-11 -53 35 -73h12q54 0 80 66l3 10q11 53 -40 70h-17q-38 0 -70 -57zM1407 -143h122q-8 47 -43 47h-7q-43 0 -71 -44zM2568 -143h122q-11 47 -44 47h-7q-46 0 -71 -47zM3162 -158l-2 -11q-6 -73 45 -73h5
q66 8 79 71l2 5q9 45 -25 65l-17 5h-14q-63 -14 -73 -62zM3415 -173q-1 -69 47 -69h11q41 0 72 60l3 13q7 73 -41 73h-17q-47 0 -74 -73zM4028 -158l-4 -22q-10 -47 45 -62h9q50 0 78 76q1 70 -44 70h-15q-59 -17 -69 -62z" />
    <glyph glyph-name=".null" horiz-adv-x="0" 
 />
    <glyph glyph-name="nonmarkingreturn" horiz-adv-x="571" 
 />
    <glyph glyph-name="space" unicode=" " horiz-adv-x="567" 
 />
    <glyph glyph-name="zero" unicode="0" horiz-adv-x="1134" 
d="M1192 553q-20 -94 -54 -177q-40 -97 -95 -167q-189 -236 -482 -236t-382 236q-25 70 -24 167q1 83 21 177l94 442q36 167 116 279q193 268 508 268t393 -268q35 -112 -1 -279zM1127 961q16 74 17 149q0 87 -21 139q-65 156 -258 156t-324 -156q-44 -52 -79 -139
q-31 -75 -47 -149l-82 -386q-18 -85 -22 -156q-6 -94 15 -147q63 -161 264 -161t334 161q43 53 77 147q26 71 44 156z" />
    <glyph glyph-name="one" unicode="1" horiz-adv-x="1134" 
d="M536 0l293 1378h-260l29 138h412l-322 -1516h-152z" />
    <glyph glyph-name="two" unicode="2" horiz-adv-x="1134" 
d="M1138 814q-46 -52 -112 -110q-46 -40 -125 -102l-586 -465h758l-29 -137h-963l29 137l755 603q69 56 115 102q125 124 150 241q28 133 -49 228q-76 94 -209 94q-158 0 -270 -113q-104 -103 -139 -266h-152l1 4q36 169 131 288q104 130 265 187q100 37 201 37
q312 0 372 -289q19 -87 1 -172q-30 -139 -144 -267z" />
    <glyph glyph-name="three" unicode="3" horiz-adv-x="1134" 
d="M926 118q-168 -145 -374 -145q-94 0 -173 35q-138 57 -190 183q-49 117 -20 284h152q-9 -67 -8 -105q1 -53 18 -98q63 -161 250 -161q148 0 261 101q107 97 139 247q24 114 -30 205q-53 90 -159 118q-34 9 -86 12l-87 3l28 133l51 -2q120 0 210 58q99 64 123 179
q22 104 -29 172q-52 68 -156 68q-106 0 -187 -84q-74 -75 -97 -184h-152q42 173 168 286q131 119 301 119q165 0 251 -112q85 -112 50 -277q-20 -92 -76 -162q-49 -61 -140 -123q227 -135 171 -401q-44 -207 -209 -349z" />
    <glyph glyph-name="four" unicode="4" horiz-adv-x="1134" 
d="M1002 276l-59 -276h-151l59 276h-764l29 138l970 1102h180l-235 -1102h138l-29 -138h-138zM1070 1307h-4l-776 -893h590z" />
    <glyph glyph-name="five" unicode="5" horiz-adv-x="1134" 
d="M964 130q-183 -157 -399 -157q-88 0 -169 33q-139 55 -200 183q-55 118 -42 288h152q-17 -155 57 -258q80 -108 231 -108q154 0 286 119q127 115 160 272q34 159 -40 274q-79 121 -237 121q-183 0 -351 -172l-110 43l296 748h682l-29 -138h-561l-165 -417q146 71 273 71
q217 0 330 -158q110 -154 63 -372q-46 -217 -227 -372z" />
    <glyph glyph-name="six" unicode="6" horiz-adv-x="1134" 
d="M965 128q-180 -155 -403 -155q-229 0 -342 156q-111 152 -62 383q25 116 106 235q32 48 81 106q29 35 89 103l496 557h172l-459 -514l3 -2q76 33 148 33q219 0 333 -154q112 -152 65 -372q-47 -223 -227 -376zM997 776q-81 117 -240 117q-160 0 -290 -119
q-126 -115 -160 -276q-34 -159 46 -271q81 -116 238 -116q161 0 291 116q124 112 159 275q34 160 -44 274z" />
    <glyph glyph-name="seven" unicode="7" horiz-adv-x="1134" 
d="M385 0h-160l918 1378h-721l29 138h877l-29 -138z" />
    <glyph glyph-name="eight" unicode="8" horiz-adv-x="1134" 
d="M929 109q-171 -136 -367 -136t-310 135q-117 137 -76 332q28 131 122 243q98 116 225 163q-154 115 -114 303q36 168 177 281q140 112 308 112q169 0 261 -115t56 -284q-42 -198 -243 -297q235 -125 175 -406q-41 -194 -214 -331zM1028 1331q-56 74 -159 74
q-106 0 -196 -72q-89 -72 -112 -178q-21 -100 41 -173q59 -73 159 -73q102 0 190 72q89 72 110 174q22 102 -33 176zM943 673q-78 95 -216 95q-131 0 -250 -95q-119 -96 -147 -227q-31 -144 44 -240q76 -95 220 -95q137 0 253 97t144 232q30 138 -48 233z" />
    <glyph glyph-name="nine" unicode="9" horiz-adv-x="1134" 
d="M1192 766q-32 -48 -80 -105q-30 -36 -90 -104l-496 -557h-172l460 514l-4 2q-69 -33 -148 -33q-219 0 -333 154q-112 152 -65 373q47 223 227 375q182 155 404 155q229 0 341 -156q111 -152 62 -383q-25 -116 -106 -235zM1104 1287q-81 116 -238 116q-161 0 -290 -117
q-125 -112 -160 -274q-34 -161 43 -274q81 -117 240 -117q160 0 292 119q125 114 159 276q34 158 -46 271z" />
    <glyph glyph-name="A" unicode="A" horiz-adv-x="1515" 
d="M1327 0l-112 510h-704l-329 -510h-158l969 1516h170l329 -1516h-165zM1042 1343l-444 -696h588z" />
    <glyph glyph-name="B" unicode="B" horiz-adv-x="1175" 
d="M957 84q-94 -52 -193 -70q-74 -14 -195 -14h-418l322 1516h381q162 0 264 -53q121 -62 149 -195q15 -74 -3 -156q-21 -99 -81 -174q-51 -65 -149 -131q230 -103 172 -373q-51 -240 -249 -350zM1086 1284q-38 58 -126 79q-35 9 -81 13q-34 2 -81 2h-202l-110 -516l257 1
q38 1 67 5q76 9 135 37q137 65 169 213q20 94 -28 166zM931 690q-56 24 -139 31q-32 3 -74 4h-261l-125 -588l285 1l74 4q83 8 148 34q175 67 215 258q39 183 -123 256z" />
    <glyph glyph-name="C" unicode="C" horiz-adv-x="1665" 
d="M1663 397q-321 -424 -788 -424q-328 0 -512 227q-184 229 -114 556q70 331 348 558q277 226 609 226q359 0 541 -270q50 -74 65 -144h-170q-127 277 -468 277q-259 0 -491 -196q-228 -193 -283 -453q-54 -256 96 -449q150 -194 406 -194q159 0 316 78q146 74 275 208h170
z" />
    <glyph glyph-name="D" unicode="D" horiz-adv-x="1523" 
d="M1114 125q-111 -62 -259 -96q-132 -29 -262 -29h-442l322 1516h442q131 0 250 -30q133 -33 218 -95q297 -220 208 -637q-86 -405 -477 -629zM1289 1262q-86 71 -218 97q-56 11 -125 16q-55 3 -131 3h-219l-264 -1241h251q76 0 132 4q69 5 128 17q136 28 254 102
q131 82 224 222q89 132 120 278q68 324 -152 502z" />
    <glyph glyph-name="E" unicode="E" horiz-adv-x="1097" 
d="M143 0l322 1516h829l-29 -138h-677l-116 -544h655l-29 -138h-655l-119 -559h677l-29 -137h-829z" />
    <glyph glyph-name="F" unicode="F" horiz-adv-x="993" 
d="M588 1378l-117 -549h591l-29 -137h-591l-147 -692h-152l322 1516h766l-29 -138h-614z" />
    <glyph glyph-name="G" unicode="G" horiz-adv-x="1785" 
d="M1843 696q-91 -309 -368 -517q-275 -206 -587 -206q-327 0 -519 228q-196 232 -127 557q70 328 362 558q286 226 616 226q375 0 560 -278q50 -74 65 -152h-176q-49 135 -185 216q-130 77 -291 77q-271 0 -506 -189q-236 -190 -293 -460q-58 -272 100 -460
q157 -185 430 -185q205 0 407 125q210 129 301 323h-846l29 137h1028z" />
    <glyph glyph-name="H" unicode="H" horiz-adv-x="1398" 
d="M1091 0l151 711h-784l-151 -711h-152l322 1516h152l-142 -668h784l142 668h151l-322 -1516h-151z" />
    <glyph glyph-name="I" unicode="I" horiz-adv-x="462" 
d="M155 0l322 1516h152l-322 -1516h-152z" />
    <glyph glyph-name="J" unicode="J" horiz-adv-x="987" 
d="M909 409l-20 -74q-26 -84 -64 -142q-142 -220 -407 -220q-173 0 -265 108t-65 279h150q-36 -249 211 -249q151 0 232 116q33 47 57 117q17 52 34 131l221 1041h152z" />
    <glyph glyph-name="K" unicode="K" horiz-adv-x="1210" 
d="M1019 0l-366 657l-248 -241l-88 -416h-152l322 1516h152l-185 -871h4l879 871h194l-757 -740l435 -776h-190z" />
    <glyph glyph-name="L" unicode="L" horiz-adv-x="946" 
d="M167 0l322 1516h152l-293 -1379h626l-29 -137h-778z" />
    <glyph glyph-name="M" unicode="M" horiz-adv-x="1882" 
d="M1574 0l287 1350h-4l-854 -1350h-129l-276 1350h-4l-287 -1350h-152l322 1516h233l277 -1291l827 1291h234l-322 -1516h-152z" />
    <glyph glyph-name="N" unicode="N" horiz-adv-x="1515" 
d="M1208 0l-616 1333h-4l-283 -1333h-152l322 1516h205l579 -1258h4l267 1258h151l-322 -1516h-151z" />
    <glyph glyph-name="O" unicode="O" horiz-adv-x="1779" 
d="M1495 201q-285 -228 -612 -228q-322 0 -512 226q-192 230 -124 551q70 330 355 562q283 230 615 230q328 0 515 -228q190 -230 121 -556t-358 -557zM1606 1214q-152 191 -419 191q-270 0 -501 -193q-230 -193 -287 -462q-55 -262 98 -451q152 -188 415 -188
q266 0 499 189t290 456q56 267 -95 458z" />
    <glyph glyph-name="P" unicode="P" horiz-adv-x="1212" 
d="M1114 698q-89 -53 -203 -73q-48 -8 -104 -12q-44 -3 -102 -3h-270l-130 -610h-152l322 1516h422q58 0 102 -3q54 -4 98 -12q106 -21 172 -74q161 -128 111 -364t-266 -365zM1112 1339q-51 28 -120 35l-64 4h-330l-134 -630h330l66 4q71 7 134 34q194 84 235 277t-117 276
z" />
    <glyph glyph-name="Q" unicode="Q" horiz-adv-x="1783" 
d="M1504 193q82 -85 209 -82l-30 -138q-194 0 -310 131q-226 -131 -483 -131q-331 0 -522 223q-197 227 -127 556q72 339 360 566q283 224 625 224q345 0 531 -225q188 -228 114 -572q-67 -319 -367 -552zM1626 1215q-152 190 -427 190q-279 0 -514 -191
q-235 -192 -294 -471q-19 -89 -11 -172q169 52 332 52q232 0 402 -89q76 -40 154 -104q66 -54 147 -139q118 96 195 208q84 122 112 251q58 274 -96 465zM1237 248q-28 26 -43 41q-52 48 -90 73q-180 123 -445 123q-134 0 -244 -43q17 -58 63 -120q150 -211 446 -211
q195 0 355 98z" />
    <glyph glyph-name="R" unicode="R" horiz-adv-x="1243" 
d="M1191 705q-154 -127 -350 -140l308 -565h-191l-368 686l164 1q104 3 167 22q266 76 318 321q43 201 -104 291q-58 35 -133 48q-56 9 -150 9h-264l-293 -1378h-152l322 1516h385q51 0 92 -2q52 -3 95 -8q109 -14 174 -48q242 -130 178 -432q-41 -191 -198 -321z" />
    <glyph glyph-name="S" unicode="S" horiz-adv-x="1019" 
d="M855 101q-160 -128 -349 -128q-203 0 -306 124q-105 124 -65 327h152q-53 -313 249 -313q127 0 233 86q109 88 136 215q29 137 -61 220q-36 33 -95 61q-44 20 -114 42q-89 28 -140 53q-70 32 -110 72q-96 96 -58 275q38 177 188 293q147 114 325 114q176 0 272 -117
q98 -119 60 -295h-152q24 112 -37 193q-61 82 -172 82q-115 0 -210 -75q-96 -75 -120 -189q-29 -132 79 -201q40 -25 107 -48l113 -36q162 -52 234 -155q80 -114 44 -283q-40 -188 -203 -317z" />
    <glyph glyph-name="T" unicode="T" horiz-adv-x="872" 
d="M805 1378l-293 -1378h-152l293 1378h-348l29 138h846l-29 -138h-346z" />
    <glyph glyph-name="U" unicode="U" 
d="M1306 571q-18 -85 -46 -161q-34 -89 -78 -154q-192 -283 -519 -283t-399 283q-16 65 -11 154q3 76 21 161l201 945h152l-201 -945q-16 -74 -20 -140q-4 -84 13 -134q62 -186 273 -186t353 186q39 50 69 134q25 66 41 140l201 945h151z" />
    <glyph glyph-name="V" unicode="V" horiz-adv-x="1437" 
d="M790 0h-149l-303 1516h168l252 -1328l819 1328h164z" />
    <glyph glyph-name="W" unicode="W" horiz-adv-x="1966" 
d="M1511 0h-193l-69 1243h-5l-595 -1243h-195l-110 1516h156l89 -1321h4l642 1321h141l83 -1319h4l650 1319h154z" />
    <glyph glyph-name="X" unicode="X" horiz-adv-x="1247" 
d="M1052 0l-288 647l-570 -647h-178l679 774l-328 742h178l274 -607l529 607h176l-645 -742l354 -774h-181z" />
    <glyph glyph-name="Y" unicode="Y" horiz-adv-x="1212" 
d="M787 506l-107 -506h-152l107 506l-311 1010h168l251 -850l625 850h166z" />
    <glyph glyph-name="Z" unicode="Z" horiz-adv-x="983" 
d="M24 0l29 137l1009 1241h-722l29 138h892l-29 -138l-1007 -1241h766l-29 -137h-938z" />
    <glyph glyph-name="a" unicode="a" horiz-adv-x="1398" 
d="M1128 0l42 197h-4q-196 -224 -484 -224q-253 0 -391 169q-139 169 -85 421q53 250 266 419q210 167 460 167q293 0 388 -225h4l42 196h144l-238 -1120h-144zM1196 883q-102 137 -291 137q-199 0 -357 -132t-201 -331q-41 -196 62 -326q104 -129 301 -129q189 0 348 135
q158 133 198 322t-60 324z" />
    <glyph glyph-name="b" unicode="b" horiz-adv-x="1396" 
d="M1180 142q-210 -169 -463 -169q-283 0 -389 224h-4l-42 -197h-143l322 1516h143l-126 -592h4q206 225 485 225q250 0 389 -167q142 -169 89 -419q-54 -252 -265 -421zM1241 888q-102 132 -301 132q-189 0 -349 -137q-158 -135 -198 -324t60 -322q103 -135 292 -135
q197 0 354 129q159 130 200 326q43 199 -58 331z" />
    <glyph glyph-name="c" unicode="c" horiz-adv-x="1325" 
d="M1312 330q-257 -357 -633 -357q-250 0 -389 168q-141 170 -88 418q52 246 267 419q213 171 460 171q185 0 315 -97q132 -100 164 -270h-158q-74 238 -344 238q-193 0 -355 -132q-164 -132 -205 -325q-42 -195 64 -328t301 -133q277 0 443 228h158z" />
    <glyph glyph-name="d" unicode="d" horiz-adv-x="1402" 
d="M1121 0l42 197h-4q-198 -224 -484 -224q-253 0 -391 169q-139 169 -85 421q53 250 266 419q210 167 460 167q285 0 389 -221h4l125 588h144l-322 -1516h-144zM1189 883q-102 137 -291 137q-199 0 -357 -132t-201 -331q-41 -196 62 -326q104 -129 301 -129q189 0 348 135
q158 133 198 322t-60 324z" />
    <glyph glyph-name="e" unicode="e" horiz-adv-x="1331" 
d="M1352 508h-1020q-27 -165 78 -286q104 -120 270 -120q132 0 257 70q130 73 201 195h152q-100 -176 -275 -285t-360 -109q-242 0 -377 173q-134 171 -83 413q52 241 259 415q209 175 449 175q244 0 378 -179q133 -177 81 -421zM1234 637q7 166 -91 274q-99 109 -266 109
q-166 0 -312 -109q-144 -108 -206 -274h875z" />
    <glyph glyph-name="f" unicode="f" horiz-adv-x="643" 
d="M566 991l-211 -991h-143l211 991h-174l27 129h174l11 42q6 24 12 42q14 47 32 84q66 139 197 201q108 51 268 53l-29 -133q-287 0 -346 -281l-2 -8h287l-27 -129h-287z" />
    <glyph glyph-name="g" unicode="g" horiz-adv-x="1378" 
d="M1278 176q-14 -64 -27 -109q-16 -58 -35 -105q-47 -112 -127 -195q-201 -207 -489 -207q-206 0 -336 106q-135 109 -150 305h152q52 -282 359 -282q188 0 323 115q132 113 172 302l21 99h-4q-83 -112 -220 -174q-127 -58 -262 -58q-244 0 -378 169q-136 170 -84 413
q52 245 259 419q208 175 453 175q284 0 384 -229h4l42 200h143zM1165 882q-101 138 -287 138q-187 0 -345 -138q-156 -134 -196 -323q-40 -187 59 -320q100 -137 287 -137q184 0 344 137q157 134 197 320q40 187 -59 323z" />
    <glyph glyph-name="h" unicode="h" horiz-adv-x="1249" 
d="M968 0l131 616q19 90 11 166q-8 89 -53 142q-81 96 -222 96q-142 0 -265 -96q-66 -52 -111 -138q-39 -74 -57 -159l-133 -627h-143l322 1516h143l-114 -539h4q147 172 381 172q235 0 335 -150q96 -144 45 -383l-131 -616h-143z" />
    <glyph glyph-name="i" unicode="i" horiz-adv-x="409" 
d="M400 1257l55 259h143l-55 -259h-143zM133 0l238 1120h143l-238 -1120h-143z" />
    <glyph glyph-name="j" unicode="j" horiz-adv-x="415" 
d="M404 1257l55 259h144l-55 -259h-144zM292 53q-26 -122 -61 -193q-49 -97 -138 -163q-118 -87 -267 -90l30 141q139 4 212 104q30 42 52 104q18 49 33 122l222 1042h144z" />
    <glyph glyph-name="k" unicode="k" horiz-adv-x="1028" 
d="M835 0l-274 442l-230 -229l-45 -213h-143l322 1516h143l-229 -1080h4l668 684h184l-562 -565l347 -555h-185z" />
    <glyph glyph-name="l" unicode="l" horiz-adv-x="409" 
d="M133 0l322 1516h143l-322 -1516h-143z" />
    <glyph glyph-name="m" unicode="m" horiz-adv-x="1921" 
d="M1642 0l138 649q35 163 -14 260q-56 111 -212 111t-259 -111q-90 -97 -125 -260l-138 -649h-143l138 649q35 163 -15 260q-55 111 -211 111q-157 0 -260 -111q-90 -97 -125 -260l-138 -649h-143l238 1120h143l-27 -129q133 158 339 158q256 0 331 -215q180 215 422 215
q210 0 303 -139q89 -132 44 -344l-142 -666h-144z" />
    <glyph glyph-name="n" unicode="n" horiz-adv-x="1249" 
d="M975 0l131 616q19 90 11 166q-8 89 -53 142q-81 96 -222 96q-142 0 -265 -96q-66 -52 -111 -138q-39 -74 -57 -159l-133 -627h-143l238 1120h143l-30 -143h4q147 172 381 172q235 0 335 -150q96 -144 45 -383l-131 -616h-143z" />
    <glyph glyph-name="o" unicode="o" 
d="M1115 147q-210 -174 -451 -174q-237 0 -374 172t-87 408q52 244 259 419q209 177 452 177q239 0 376 -174t86 -414q-51 -241 -261 -414zM1173 885q-102 135 -285 135q-188 0 -346 -140q-155 -136 -195 -325q-40 -184 61 -318q101 -135 285 -135q190 0 348 138
q152 135 193 327q39 184 -61 318z" />
    <glyph glyph-name="p" unicode="p" horiz-adv-x="1396" 
d="M1172 142q-210 -169 -463 -169q-283 0 -390 224h-4l-125 -590h-143l322 1513h143l-42 -196h4q207 225 485 225q250 0 388 -167q142 -169 89 -419q-53 -252 -264 -421zM1232 888q-102 132 -301 132q-189 0 -349 -137q-157 -135 -198 -324q-40 -189 61 -322
q102 -135 291 -135q197 0 355 129q158 130 200 326q42 199 -59 331z" />
    <glyph glyph-name="q" unicode="q" horiz-adv-x="1396" 
d="M1033 -393l126 590h-4q-193 -224 -484 -224q-253 0 -391 169q-139 169 -85 421q53 250 266 419q210 167 460 167q291 0 388 -225h4l42 196h144l-322 -1513h-144zM1185 883q-102 137 -291 137q-199 0 -357 -132t-201 -331q-41 -196 62 -326q104 -129 301 -129
q189 0 348 135q158 133 198 322t-60 324z" />
    <glyph glyph-name="r" unicode="r" horiz-adv-x="616" 
d="M808 997q-326 -26 -393 -342l-139 -655h-143l238 1120h143l-34 -162h4q65 101 158 146q75 36 198 45z" />
    <glyph glyph-name="s" unicode="s" horiz-adv-x="794" 
d="M387 -27q-150 0 -226 98t-44 248l3 13h143q-45 -230 152 -230q209 0 251 201q21 98 -47 156q-27 23 -75 45l-87 37q-55 23 -87 41q-45 26 -71 56q-66 74 -39 200q29 137 139 224q108 87 246 87q129 0 199 -88q69 -88 41 -217h-143q27 176 -130 176q-170 0 -206 -168
q-18 -84 53 -134q27 -19 75 -39l21 -9q8 -3 23 -9l44 -18q53 -23 86 -44q45 -27 70 -61q64 -83 34 -223q-73 -342 -425 -342z" />
    <glyph glyph-name="t" unicode="t" horiz-adv-x="694" 
d="M618 991l-211 -991h-143l211 991h-236l27 129h236l85 396h143l-85 -396h268l-27 -129h-268z" />
    <glyph glyph-name="u" unicode="u" horiz-adv-x="1245" 
d="M972 0l37 174h-4q-68 -99 -181 -152q-103 -49 -220 -49q-252 0 -350 168q-40 70 -42 171q-2 82 21 190l131 618h143l-131 -616q-40 -188 13 -288q61 -114 242 -114q142 0 257 91q82 65 128 154q37 71 60 181l126 592h143l-238 -1120h-135z" />
    <glyph glyph-name="v" unicode="v" horiz-adv-x="1134" 
d="M645 0h-158l-235 1120h154l195 -942l601 942h154z" />
    <glyph glyph-name="w" unicode="w" horiz-adv-x="1701" 
d="M1251 0h-162l-80 745h-4l-391 -745h-162l-188 1120h150l153 -938h4l426 803h125l88 -803h4l555 938h148z" />
    <glyph glyph-name="x" unicode="x" horiz-adv-x="983" 
d="M788 0l-202 449l-392 -449h-170l504 569l-266 551h172l203 -432l385 432h174l-500 -551l262 -569h-170z" />
    <glyph glyph-name="y" unicode="y" horiz-adv-x="1097" 
d="M337 -393h-149l285 430l-205 1083h152l166 -893l571 893h151z" />
    <glyph glyph-name="z" unicode="z" horiz-adv-x="870" 
d="M20 0l27 125l805 866h-601l27 129h773l-27 -129l-799 -862h651l-27 -129h-829z" />
    <glyph glyph-name="Agrave" unicode="&#xc0;" horiz-adv-x="1515" 
d="M1327 0l-112 510h-704l-329 -510h-158l969 1516h170l329 -1516h-165zM1042 1343l-444 -696h588zM1258 1602l-360 219l92 123l361 -224z" />
    <glyph glyph-name="Aacute" unicode="&#xc1;" horiz-adv-x="1515" 
d="M1327 0l-112 510h-704l-329 -510h-158l969 1516h170l329 -1516h-165zM1042 1343l-444 -696h588zM943 1602l-43 118l455 224l39 -123z" />
    <glyph glyph-name="Acircumflex" unicode="&#xc2;" horiz-adv-x="1515" 
d="M1327 0l-112 510h-704l-329 -510h-158l969 1516h170l329 -1516h-165zM1042 1343l-444 -696h588zM1286 1642l-144 150l-212 -150h-186l351 256h135l239 -256h-183z" />
    <glyph glyph-name="Atilde" unicode="&#xc3;" horiz-adv-x="1515" 
d="M1327 0l-112 510h-704l-329 -510h-158l969 1516h170l329 -1516h-165zM1042 1343l-444 -696h588zM1478 1726q-124 -79 -217 -79q-41 0 -82 13q-27 8 -68 29l-63 28q-35 14 -66 14q-72 0 -150 -62l-50 103q110 86 231 86q40 0 79 -14q26 -8 67 -28q2 -2 7 -4l8 -4
q9 -5 16 -8l30 -13q35 -13 66 -13q32 0 71 17l51 26l18 10z" />
    <glyph glyph-name="Egrave" unicode="&#xc8;" horiz-adv-x="1097" 
d="M143 0l322 1516h829l-29 -138h-677l-116 -544h655l-29 -138h-655l-119 -559h677l-29 -137h-829zM1049 1602l-359 219l91 123l361 -224z" />
    <glyph glyph-name="Eacute" unicode="&#xc9;" horiz-adv-x="1097" 
d="M143 0l322 1516h829l-29 -138h-677l-116 -544h655l-29 -138h-655l-119 -559h677l-29 -137h-829zM734 1602l-43 118l455 224l39 -123z" />
    <glyph glyph-name="Ecircumflex" unicode="&#xca;" horiz-adv-x="1097" 
d="M143 0l322 1516h829l-29 -138h-677l-116 -544h655l-29 -138h-655l-119 -559h677l-29 -137h-829zM1078 1642l-144 150l-213 -150h-186l351 256h135l239 -256h-182z" />
    <glyph glyph-name="Igrave" unicode="&#xcc;" horiz-adv-x="462" 
d="M156 0l322 1516h151l-322 -1516h-151zM651 1602l-360 219l92 123l360 -224z" />
    <glyph glyph-name="Iacute" unicode="&#xcd;" horiz-adv-x="462" 
d="M156 0l322 1516h151l-322 -1516h-151zM497 1602l-43 118l455 224l39 -123z" />
    <glyph glyph-name="Ograve" unicode="&#xd2;" horiz-adv-x="1779" 
d="M1495 201q-285 -228 -612 -228q-322 0 -512 226q-192 230 -124 551q70 330 355 562q283 230 615 230q328 0 515 -228q190 -230 121 -556t-358 -557zM1606 1214q-152 191 -419 191q-270 0 -501 -193q-230 -193 -287 -462q-55 -262 98 -451q152 -188 415 -188
q266 0 499 189t290 456q56 267 -95 458zM1391 1602l-359 219l92 123l359 -224z" />
    <glyph glyph-name="Oacute" unicode="&#xd3;" horiz-adv-x="1779" 
d="M1495 201q-285 -228 -612 -228q-322 0 -512 226q-192 230 -124 551q70 330 355 562q283 230 615 230q328 0 515 -228q190 -230 121 -556t-358 -557zM1606 1214q-152 191 -419 191q-270 0 -501 -193q-230 -193 -287 -462q-55 -262 98 -451q152 -188 415 -188
q266 0 499 189t290 456q56 267 -95 458zM1155 1602l-43 118l456 224l40 -123z" />
    <glyph glyph-name="Ocircumflex" unicode="&#xd4;" horiz-adv-x="1779" 
d="M1495 201q-285 -228 -612 -228q-322 0 -512 226q-192 230 -124 551q70 330 355 562q283 230 615 230q328 0 515 -228q190 -230 121 -556t-358 -557zM1606 1214q-152 191 -419 191q-270 0 -501 -193q-230 -193 -287 -462q-55 -262 98 -451q152 -188 415 -188
q266 0 499 189t290 456q56 267 -95 458zM1420 1642l-144 150l-212 -150h-187l351 256h135l239 -256h-182z" />
    <glyph glyph-name="Otilde" unicode="&#xd5;" horiz-adv-x="1779" 
d="M1495 201q-285 -228 -612 -228q-322 0 -512 226q-192 230 -124 551q70 330 355 562q283 230 615 230q328 0 515 -228q190 -230 121 -556t-358 -557zM1606 1214q-152 191 -419 191q-270 0 -501 -193q-230 -193 -287 -462q-55 -262 98 -451q152 -188 415 -188
q266 0 499 189t290 456q56 267 -95 458zM1610 1726q-125 -79 -218 -79q-41 0 -82 13q-28 8 -68 29l-63 28q-34 14 -66 14q-72 0 -150 -62l-50 103q111 86 232 86q39 0 79 -14q26 -8 66 -28q2 -2 8 -4q4 -3 7 -4q9 -5 15 -8l32 -13q34 -13 65 -13q32 0 72 17l51 26l17 10z
" />
    <glyph glyph-name="Ugrave" unicode="&#xd9;" 
d="M1306 571q-18 -85 -46 -161q-34 -89 -78 -154q-192 -283 -519 -283t-399 283q-16 65 -11 154q3 76 21 161l201 945h152l-201 -945q-16 -74 -20 -140q-4 -84 13 -134q62 -186 273 -186t353 186q39 50 69 134q25 66 41 140l201 945h151zM1130 1602l-359 219l92 123
l360 -224z" />
    <glyph glyph-name="Uacute" unicode="&#xda;" 
d="M1306 571q-18 -85 -46 -161q-34 -89 -78 -154q-192 -283 -519 -283t-399 283q-16 65 -11 154q3 76 21 161l201 945h152l-201 -945q-16 -74 -20 -140q-4 -84 13 -134q62 -186 273 -186t353 186q39 50 69 134q25 66 41 140l201 945h151zM894 1602l-42 118l455 224l40 -123z
" />
    <glyph glyph-name="Yacute" unicode="&#xdd;" horiz-adv-x="1212" 
d="M787 506l-107 -506h-152l107 506l-311 1010h168l251 -850l625 850h166zM831 1602l-42 118l455 224l40 -123z" />
    <glyph glyph-name="agrave" unicode="&#xe0;" horiz-adv-x="1398" 
d="M1128 0l42 197h-4q-196 -224 -484 -224q-253 0 -391 169q-139 169 -85 421q53 250 266 419q210 167 460 167q293 0 388 -225h4l42 196h144l-238 -1120h-144zM1196 883q-102 137 -291 137q-199 0 -357 -132t-201 -331q-41 -196 62 -326q104 -129 301 -129q189 0 348 135
q158 133 198 322t-60 324zM1129 1268l-358 219l91 123l360 -224z" />
    <glyph glyph-name="aacute" unicode="&#xe1;" horiz-adv-x="1398" 
d="M1128 0l42 197h-4q-196 -224 -484 -224q-253 0 -391 169q-139 169 -85 421q53 250 266 419q210 167 460 167q293 0 388 -225h4l42 196h144l-238 -1120h-144zM1196 883q-102 137 -291 137q-199 0 -357 -132t-201 -331q-41 -196 62 -326q104 -129 301 -129q189 0 348 135
q158 133 198 322t-60 324zM812 1268l-43 118l456 224l39 -123z" />
    <glyph glyph-name="acircumflex" unicode="&#xe2;" horiz-adv-x="1398" 
d="M1128 0l42 197h-4q-196 -224 -484 -224q-253 0 -391 169q-139 169 -85 421q53 250 266 419q210 167 460 167q293 0 388 -225h4l42 196h144l-238 -1120h-144zM1196 883q-102 137 -291 137q-199 0 -357 -132t-201 -331q-41 -196 62 -326q104 -129 301 -129q189 0 348 135
q158 133 198 322t-60 324zM1159 1309l-145 149l-212 -149h-186l352 256h135l238 -256h-182z" />
    <glyph glyph-name="atilde" unicode="&#xe3;" horiz-adv-x="1398" 
d="M1128 0l42 197h-4q-196 -224 -484 -224q-253 0 -391 169q-139 169 -85 421q53 250 266 419q210 167 460 167q293 0 388 -225h4l42 196h144l-238 -1120h-144zM1196 883q-102 137 -291 137q-199 0 -357 -132t-201 -331q-41 -196 62 -326q104 -129 301 -129q189 0 348 135
q158 133 198 322t-60 324zM1353 1413q-125 -80 -218 -80q-41 0 -82 13q-27 9 -68 29l-63 29q-35 13 -66 13q-72 0 -150 -61l-50 102q110 86 231 86q40 0 79 -13q26 -9 67 -29q2 -1 7 -4q6 -2 8 -4q10 -4 16 -7l30 -14q35 -13 66 -13q32 0 71 18l53 26l16 9z" />
    <glyph glyph-name="egrave" unicode="&#xe8;" horiz-adv-x="1331" 
d="M1352 508h-1020q-27 -165 78 -286q104 -120 270 -120q132 0 257 70q130 73 201 195h152q-100 -176 -275 -285t-360 -109q-242 0 -377 173q-134 171 -83 413q52 241 259 415q209 175 449 175q244 0 378 -179q133 -177 81 -421zM1234 637q7 166 -91 274q-99 109 -266 109
q-166 0 -312 -109q-144 -108 -206 -274h875zM1094 1268l-359 219l92 123l359 -224z" />
    <glyph glyph-name="eacute" unicode="&#xe9;" horiz-adv-x="1331" 
d="M1352 508h-1020q-27 -165 78 -286q104 -120 270 -120q132 0 257 70q130 73 201 195h152q-100 -176 -275 -285t-360 -109q-242 0 -377 173q-134 171 -83 413q52 241 259 415q209 175 449 175q244 0 378 -179q133 -177 81 -421zM1234 637q7 166 -91 274q-99 109 -266 109
q-166 0 -312 -109q-144 -108 -206 -274h875zM778 1268l-42 118l455 224l40 -123z" />
    <glyph glyph-name="ecircumflex" unicode="&#xea;" horiz-adv-x="1331" 
d="M1352 508h-1020q-27 -165 78 -286q104 -120 270 -120q132 0 257 70q130 73 201 195h152q-100 -176 -275 -285t-360 -109q-242 0 -377 173q-134 171 -83 413q52 241 259 415q209 175 449 175q244 0 378 -179q133 -177 81 -421zM1234 637q7 166 -91 274q-99 109 -266 109
q-166 0 -312 -109q-144 -108 -206 -274h875zM1123 1309l-144 149l-212 -149h-187l351 256h135l239 -256h-182z" />
    <glyph glyph-name="igrave" unicode="&#xec;" horiz-adv-x="409" 
d="M134 0l238 1120h143l-238 -1120h-143zM554 1268l-360 219l92 123l360 -224z" />
    <glyph glyph-name="iacute" unicode="&#xed;" horiz-adv-x="409" 
d="M133 0l238 1120h143l-238 -1120h-143zM399 1268l-43 118l455 224l39 -123z" />
    <glyph glyph-name="ograve" unicode="&#xf2;" 
d="M1115 147q-210 -174 -451 -174q-237 0 -374 172t-87 408q52 244 259 419q209 177 452 177q239 0 376 -174t86 -414q-51 -241 -261 -414zM1173 885q-102 135 -285 135q-188 0 -346 -140q-155 -136 -195 -325q-40 -184 61 -318q101 -135 285 -135q190 0 348 138
q152 135 193 327q39 184 -61 318zM1100 1268l-358 219l92 123l359 -224z" />
    <glyph glyph-name="oacute" unicode="&#xf3;" 
d="M1115 147q-210 -174 -451 -174q-237 0 -374 172t-87 408q52 244 259 419q209 177 452 177q239 0 376 -174t86 -414q-51 -241 -261 -414zM1173 885q-102 135 -285 135q-188 0 -346 -140q-155 -136 -195 -325q-40 -184 61 -318q101 -135 285 -135q190 0 348 138
q152 135 193 327q39 184 -61 318zM844 1268l-42 118l455 224l40 -123z" />
    <glyph glyph-name="ocircumflex" unicode="&#xf4;" 
d="M1115 147q-210 -174 -451 -174q-237 0 -374 172t-87 408q52 244 259 419q209 177 452 177q239 0 376 -174t86 -414q-51 -241 -261 -414zM1173 885q-102 135 -285 135q-188 0 -346 -140q-155 -136 -195 -325q-40 -184 61 -318q101 -135 285 -135q190 0 348 138
q152 135 193 327q39 184 -61 318zM1130 1309l-144 149l-212 -149h-187l351 256h135l239 -256h-182z" />
    <glyph glyph-name="otilde" unicode="&#xf5;" 
d="M1115 147q-210 -174 -451 -174q-237 0 -374 172t-87 408q52 244 259 419q209 177 452 177q239 0 376 -174t86 -414q-51 -241 -261 -414zM1173 885q-102 135 -285 135q-188 0 -346 -140q-155 -136 -195 -325q-40 -184 61 -318q101 -135 285 -135q190 0 348 138
q152 135 193 327q39 184 -61 318zM1324 1413q-125 -80 -218 -80q-41 0 -82 13q-27 9 -68 29l-63 29q-35 13 -66 13q-72 0 -150 -61l-50 102q111 86 231 86q40 0 80 -13q26 -9 66 -29q3 -1 8 -4q5 -2 7 -4q9 -4 16 -7l31 -14q34 -13 65 -13q32 0 72 18l51 26l17 9z" />
    <glyph glyph-name="glyph216" unicode="&#xf9;" horiz-adv-x="1245" 
d="M972 0l37 174h-4q-68 -99 -181 -152q-103 -49 -220 -49q-252 0 -350 168q-40 70 -42 171q-2 82 21 190l131 618h143l-131 -616q-40 -188 13 -288q61 -114 242 -114q142 0 257 91q82 65 128 154q37 71 60 181l126 592h143l-238 -1120h-135zM1010 1268l-359 219l91 123
l361 -224z" />
    <glyph glyph-name="glyph217" unicode="&#xfa;" horiz-adv-x="1245" 
d="M972 0l37 174h-4q-68 -99 -181 -152q-103 -49 -220 -49q-252 0 -350 168q-40 70 -42 171q-2 82 21 190l131 618h143l-131 -616q-40 -188 13 -288q61 -114 242 -114q142 0 257 91q82 65 128 154q37 71 60 181l126 592h143l-238 -1120h-135zM777 1268l-43 118l455 224
l39 -123z" />
    <glyph glyph-name="glyph234" unicode="&#xfd;" horiz-adv-x="1097" 
d="M337 -393h-149l285 430l-205 1083h152l166 -893l571 893h151zM702 1268l-42 118l455 224l40 -123z" />
    <glyph glyph-name="Abreve" unicode="&#x102;" horiz-adv-x="1515" 
d="M1327 0l-112 510h-704l-329 -510h-158l969 1516h170l329 -1516h-165zM1042 1343l-444 -696h588zM1503 1823q-64 -111 -178 -165q-97 -46 -225 -46q-127 0 -206 46q-89 53 -106 165h133q50 -94 204 -94q68 0 128 21q71 24 116 73h134z" />
    <glyph glyph-name="abreve" unicode="&#x103;" horiz-adv-x="1398" 
d="M1128 0l42 197h-4q-196 -224 -484 -224q-253 0 -391 169q-139 169 -85 421q53 250 266 419q210 167 460 167q293 0 388 -225h4l42 196h144l-238 -1120h-144zM1196 883q-102 137 -291 137q-199 0 -357 -132t-201 -331q-41 -196 62 -326q104 -129 301 -129q189 0 348 135
q158 133 198 322t-60 324zM1385 1491q-65 -111 -178 -165q-98 -46 -226 -46q-127 0 -205 46q-90 53 -106 165h133q49 -94 203 -94q68 0 129 21q70 24 117 73h133z" />
    <glyph glyph-name="Dslash" unicode="&#x110;" horiz-adv-x="1523" 
d="M453 711l-122 -574h252q75 0 131 4q69 5 128 17q137 28 254 102q132 82 225 222q89 132 120 278q68 324 -152 502q-87 71 -218 97q-56 11 -126 16q-54 3 -131 3h-219l-113 -530h460l-29 -137h-460zM331 848l142 668h442q131 0 250 -30q133 -33 217 -95q298 -220 209 -637
q-86 -405 -478 -629q-111 -62 -259 -96q-131 -29 -261 -29h-442l151 711h-122l29 137h122z" />
    <glyph glyph-name="dcroat" unicode="&#x111;" horiz-adv-x="1402" 
d="M1121 0l42 197h-4q-198 -224 -484 -224q-253 0 -391 169q-139 169 -85 421q53 250 266 419q210 167 460 167q285 0 389 -221h4l125 588h144l-322 -1516h-144zM1189 883q-102 137 -291 137q-199 0 -357 -132t-201 -331q-41 -196 62 -326q104 -129 301 -129q189 0 348 135
q158 133 198 322t-60 324zM1682 1362l-29 -140h-624l29 140h624z" />
    <glyph glyph-name="Itilde" unicode="&#x128;" horiz-adv-x="462" 
d="M155 0l322 1516h151l-322 -1516h-151zM964 1726q-124 -79 -217 -79q-41 0 -82 13q-27 8 -68 29l-63 28q-35 14 -66 14q-72 0 -150 -62l-50 103q110 86 231 86q40 0 79 -14q26 -8 67 -28q2 -2 7 -4l8 -4q9 -5 16 -8l30 -13q35 -13 66 -13q32 0 71 17l51 26l18 10z" />
    <glyph glyph-name="itilde" unicode="&#x129;" horiz-adv-x="409" 
d="M133 0l238 1120h143l-238 -1120h-143zM862 1353q-125 -80 -218 -80q-41 0 -83 13q-27 9 -67 29l-63 29q-36 13 -67 13q-72 0 -150 -61l-50 102q110 86 231 86q40 0 80 -13q26 -9 67 -29q1 -1 7 -4q5 -2 8 -4q9 -4 15 -7l30 -14q36 -13 67 -13q32 0 70 18l53 26l17 9z" />
    <glyph glyph-name="Utilde" unicode="&#x168;" 
d="M1306 571q-18 -85 -46 -161q-34 -89 -78 -154q-192 -283 -519 -283t-399 283q-16 65 -11 154q3 76 21 161l201 945h152l-201 -945q-16 -74 -20 -140q-4 -84 13 -134q62 -186 273 -186t353 186q39 50 69 134q25 66 41 140l201 945h151zM1379 1726q-125 -79 -218 -79
q-41 0 -82 13q-28 8 -68 29l-63 28q-34 14 -66 14q-72 0 -150 -62l-50 103q111 86 232 86q39 0 79 -14q26 -8 66 -28q2 -2 8 -4q4 -3 7 -4q9 -5 15 -8l32 -13q34 -13 65 -13q32 0 71 17l52 26l17 10z" />
    <glyph glyph-name="utilde" unicode="&#x169;" horiz-adv-x="1245" 
d="M972 0l37 174h-4q-68 -99 -181 -152q-103 -49 -220 -49q-252 0 -350 168q-40 70 -42 171q-2 82 21 190l131 618h143l-131 -616q-40 -188 13 -288q61 -114 242 -114q142 0 257 91q82 65 128 154q37 71 60 181l126 592h143l-238 -1120h-135zM1324 1413q-125 -80 -218 -80
q-41 0 -83 13q-27 9 -67 29l-63 29q-36 13 -67 13q-72 0 -150 -61l-50 102q111 86 231 86q40 0 81 -13q26 -9 66 -29l8 -4q4 -2 7 -4q9 -4 15 -7l31 -14q35 -13 66 -13q32 0 71 18l52 26l17 9z" />
    <glyph glyph-name="Ohorn" unicode="&#x1a0;" horiz-adv-x="1779" 
d="M1606 1214q-152 191 -419 191q-270 0 -501 -193q-230 -193 -287 -462q-55 -262 98 -451q152 -188 415 -188q266 0 499 189t290 456q56 267 -95 458zM1702 1348q16 -16 30 -34q190 -230 121 -556t-358 -557q-285 -228 -612 -228q-322 0 -512 226q-192 230 -124 551
q70 330 355 562q283 230 615 230q235 0 398 -117q24 10 38 16q22 9 67 38t59 71h-65l39 180h189l-40 -186q-17 -49 -42 -81.5t-55.5 -54.5t-51.5 -34q-18 -11 -51 -26z" />
    <glyph glyph-name="ohorn" unicode="&#x1a1;" 
d="M1173 885q-102 135 -285 135q-188 0 -346 -140q-155 -136 -195 -325q-40 -184 61 -318q101 -135 285 -135q190 0 348 138q152 135 193 327q39 184 -61 318zM1299 962q126 -170 77 -401q-51 -241 -261 -414q-210 -174 -451 -174q-237 0 -374 172t-87 408q52 244 259 419
q209 177 452 177q188 0 312 -107q16 7 25 11q21 9 63.5 38t56.5 71h-61l38 180h176l-40 -186q-17 -49 -40.5 -81.5t-51.5 -54.5t-49 -34q-17 -10 -44 -24z" />
    <glyph glyph-name="Uhorn" unicode="&#x1af;" 
d="M1470 1344l-164 -773q-18 -85 -47 -161q-33 -89 -78 -154q-191 -283 -518 -283t-399 283q-16 65 -12 154q4 76 22 161l201 945h151l-201 -945q-16 -74 -20 -140q-3 -84 13 -134q63 -186 274 -186t353 186q39 50 69 134q24 66 40 140l201 945h152l-8 -36q45 29 58 70h-65
l38 180h189l-39 -186q-17 -49 -42 -81.5t-55.5 -54.5t-51.5 -34q-22 -12 -61 -30z" />
    <glyph glyph-name="uhorn" unicode="&#x1b0;" horiz-adv-x="1245" 
d="M1310 954l-203 -954h-135l37 174h-4q-68 -99 -181 -152q-103 -49 -220 -49q-252 0 -350 168q-40 70 -42 171q-2 82 21 190l131 618h143l-131 -616q-40 -188 13 -288q61 -114 242 -114q142 0 257 91q82 65 128 154q37 71 60 181l126 592h143l-7 -33l6 4q42 29 56 71h-61
l39 180h176l-40 -186q-17 -49 -40.5 -81.5t-52 -54.5t-49.5 -34.5t-61 -32.5z" />
    <glyph glyph-name="uni1EA0" unicode="&#x1ea0;" horiz-adv-x="1515" 
d="M1327 0l-112 510h-704l-329 -510h-158l969 1516h170l329 -1516h-165zM1042 1343l-444 -696h588zM600 -385l55 259h152l-55 -259h-152z" />
    <glyph glyph-name="uni1EA1" unicode="&#x1ea1;" horiz-adv-x="1398" 
d="M1128 0l42 197h-4q-196 -224 -484 -224q-253 0 -391 169q-139 169 -85 421q53 250 266 419q210 167 460 167q293 0 388 -225h4l42 196h144l-238 -1120h-144zM1196 883q-102 137 -291 137q-199 0 -357 -132t-201 -331q-41 -196 62 -326q104 -129 301 -129q189 0 348 135
q158 133 198 322t-60 324zM521 -385l55 259h152l-55 -259h-152z" />
    <glyph glyph-name="uni1EA2" unicode="&#x1ea2;" horiz-adv-x="1515" 
d="M1327 0l-112 510h-704l-329 -510h-158l969 1516h170l329 -1516h-165zM1042 1343l-444 -696h588zM1335 1794q-9 -11 -29 -28l-16 -14l-49 -40q-15 -14 -29 -30q-24 -27 -40 -87h-127l6 27q11 51 49 99q11 14 34 36q10 9 32 26l33 26q15 14 29 28q21 22 27 49q9 42 -12 66
q-23 27 -55 27q-46 0 -83 -42q-13 -15 -21 -34q-4 -11 -14 -61h-129l8 39q17 81 97 144q75 57 166 57q93 0 139 -56q49 -61 31 -142q-9 -46 -47 -90z" />
    <glyph glyph-name="uni1EA3" unicode="&#x1ea3;" horiz-adv-x="1398" 
d="M1128 0l42 197h-4q-196 -224 -484 -224q-253 0 -391 169q-139 169 -85 421q53 250 266 419q210 167 460 167q293 0 388 -225h4l42 196h144l-238 -1120h-144zM1196 883q-102 137 -291 137q-199 0 -357 -132t-201 -331q-41 -196 62 -326q104 -129 301 -129q189 0 348 135
q158 133 198 322t-60 324zM1182 1442q-9 -11 -29 -28l-16 -14l-49 -40q-15 -14 -29 -30q-24 -27 -40 -87h-127l6 27q11 51 49 99q11 14 35 36q9 9 31 26l33 26q16 14 30 28q20 22 26 49q9 42 -12 66q-23 27 -55 27q-46 0 -83 -42q-13 -15 -20 -34q-5 -11 -15 -61h-129l8 39
q17 81 98 144q74 57 165 57q93 0 139 -56q49 -61 32 -142q-10 -46 -48 -90z" />
    <glyph glyph-name="uni1EA4" unicode="&#x1ea4;" horiz-adv-x="1515" 
d="M1327 0l-112 510h-704l-329 -510h-158l969 1516h170l329 -1516h-165zM1042 1343l-444 -696h588zM1387 1803l-43 118l456 224l39 -123zM1286 1642l-144 150l-212 -150h-186l351 256h135l239 -256h-183z" />
    <glyph glyph-name="uni1EA5" unicode="&#x1ea5;" horiz-adv-x="1398" 
d="M1128 0l42 197h-4q-196 -224 -484 -224q-253 0 -391 169q-139 169 -85 421q53 250 266 419q210 167 460 167q293 0 388 -225h4l42 196h144l-238 -1120h-144zM1196 883q-102 137 -291 137q-199 0 -357 -132t-201 -331q-41 -196 62 -326q104 -129 301 -129q189 0 348 135
q158 133 198 322t-60 324zM1313 1448l-43 118l455 224l39 -123zM1159 1309l-145 149l-212 -149h-186l352 256h135l238 -256h-182z" />
    <glyph glyph-name="uni1EA6" unicode="&#x1ea6;" horiz-adv-x="1515" 
d="M1327 0l-112 510h-704l-329 -510h-158l969 1516h170l329 -1516h-165zM1042 1343l-444 -696h588zM1403 1863l-359 219l92 123l360 -224zM1286 1642l-144 150l-212 -150h-186l351 256h135l239 -256h-183z" />
    <glyph glyph-name="uni1EA7" unicode="&#x1ea7;" horiz-adv-x="1398" 
d="M1128 0l42 197h-4q-196 -224 -484 -224q-253 0 -391 169q-139 169 -85 421q53 250 266 419q210 167 460 167q293 0 388 -225h4l42 196h144l-238 -1120h-144zM1196 883q-102 137 -291 137q-199 0 -357 -132t-201 -331q-41 -196 62 -326q104 -129 301 -129q189 0 348 135
q158 133 198 322t-60 324zM1297 1539l-358 219l91 123l360 -224zM1159 1309l-145 149l-212 -149h-186l352 256h135l238 -256h-182z" />
    <glyph glyph-name="uni1EA8" unicode="&#x1ea8;" horiz-adv-x="1515" 
d="M1327 0l-112 510h-704l-329 -510h-158l969 1516h170l329 -1516h-165zM1042 1343l-444 -696h588zM1610 2045q-10 -11 -29 -28l-16 -14l-50 -40q-15 -14 -29 -30q-24 -27 -40 -87h-127l6 27q11 51 49 99q11 14 35 36q10 9 31 26l33 26q16 14 30 28q20 22 26 49q9 42 -12 66
q-23 27 -55 27q-46 0 -83 -42q-13 -15 -20 -34q-4 -11 -15 -61h-129l8 39q17 81 98 144q74 57 165 57q93 0 139 -56q49 -61 32 -142q-10 -46 -47 -90zM1286 1642l-144 150l-212 -150h-186l351 256h135l239 -256h-183z" />
    <glyph glyph-name="uni1EA9" unicode="&#x1ea9;" horiz-adv-x="1398" 
d="M1128 0l42 197h-4q-196 -224 -484 -224q-253 0 -391 169q-139 169 -85 421q53 250 266 419q210 167 460 167q293 0 388 -225h4l42 196h144l-238 -1120h-144zM1196 883q-102 137 -291 137q-199 0 -357 -132t-201 -331q-41 -196 62 -326q104 -129 301 -129q189 0 348 135
q158 133 198 322t-60 324zM1159 1309l-145 149l-212 -149h-186l352 256h135l238 -256h-182zM1515 1683q-10 -11 -29 -28l-16 -14l-50 -40q-15 -14 -29 -30q-24 -27 -40 -87h-127l6 27q11 51 49 99q11 14 35 36q10 9 31 26l33 26q16 14 30 28q20 22 26 49q9 42 -12 66
q-23 27 -55 27q-46 0 -83 -42q-13 -15 -20 -34q-5 -11 -15 -61h-129l8 39q17 81 98 144q74 57 165 57q93 0 139 -56q49 -61 32 -142q-10 -46 -47 -90z" />
    <glyph glyph-name="uni1EAA" unicode="&#x1eaa;" horiz-adv-x="1515" 
d="M1327 0l-112 510h-704l-329 -510h-158l969 1516h170l329 -1516h-165zM1042 1343l-444 -696h588zM1643 1987q-123 -79 -216 -79q-41 0 -83 13q-27 8 -68 29l-63 28q-35 14 -66 14q-72 0 -150 -62l-50 103q110 86 231 86q40 0 79 -14q27 -8 67 -28q2 -2 8 -4q5 -3 8 -4
q9 -5 15 -8l30 -13q36 -13 67 -13q32 0 70 17l52 26l18 10zM1286 1642l-144 150l-212 -150h-186l351 256h135l239 -256h-183z" />
    <glyph glyph-name="uni1EAB" unicode="&#x1eab;" horiz-adv-x="1398" 
d="M1128 0l42 197h-4q-196 -224 -484 -224q-253 0 -391 169q-139 169 -85 421q53 250 266 419q210 167 460 167q293 0 388 -225h4l42 196h144l-238 -1120h-144zM1196 883q-102 137 -291 137q-199 0 -357 -132t-201 -331q-41 -196 62 -326q104 -129 301 -129q189 0 348 135
q158 133 198 322t-60 324zM1479 1674q-125 -80 -218 -80q-41 0 -83 13q-27 9 -67 29l-63 29q-35 13 -66 13q-72 0 -150 -61l-51 102q111 86 232 86q40 0 79 -13q26 -9 67 -29q1 -1 7 -4q5 -2 8 -4q9 -4 15 -7l30 -14q36 -13 67 -13q32 0 71 18l52 26l17 9zM1159 1309
l-145 149l-212 -149h-186l352 256h135l238 -256h-182z" />
    <glyph glyph-name="uni1EAC" unicode="&#x1eac;" horiz-adv-x="1515" 
d="M1327 0l-112 510h-704l-329 -510h-158l969 1516h170l329 -1516h-165zM1042 1343l-444 -696h588zM600 -385l55 259h152l-55 -259h-152zM1286 1642l-144 150l-212 -150h-186l351 256h135l239 -256h-183z" />
    <glyph glyph-name="uni1EAD" unicode="&#x1ead;" horiz-adv-x="1398" 
d="M1128 0l42 197h-4q-196 -224 -484 -224q-253 0 -391 169q-139 169 -85 421q53 250 266 419q210 167 460 167q293 0 388 -225h4l42 196h144l-238 -1120h-144zM1196 883q-102 137 -291 137q-199 0 -357 -132t-201 -331q-41 -196 62 -326q104 -129 301 -129q189 0 348 135
q158 133 198 322t-60 324zM521 -385l55 259h152l-55 -259h-152zM1159 1309l-145 149l-212 -149h-186l352 256h135l238 -256h-182z" />
    <glyph glyph-name="uni1EAE" unicode="&#x1eae;" horiz-adv-x="1515" 
d="M1327 0l-112 510h-704l-329 -510h-158l969 1516h170l329 -1516h-165zM1042 1343l-444 -696h588zM1156 1803l-43 118l456 224l39 -123zM1503 1823q-63 -111 -177 -165q-98 -46 -225 -46q-128 0 -206 46q-89 53 -107 165h134q50 -94 204 -94q68 0 128 21q70 24 116 73h133z
" />
    <glyph glyph-name="uni1EAF" unicode="&#x1eaf;" horiz-adv-x="1398" 
d="M1128 0l42 197h-4q-196 -224 -484 -224q-253 0 -391 169q-139 169 -85 421q53 250 266 419q210 167 460 167q293 0 388 -225h4l42 196h144l-238 -1120h-144zM1196 883q-102 137 -291 137q-199 0 -357 -132t-201 -331q-41 -196 62 -326q104 -129 301 -129q189 0 348 135
q158 133 198 322t-60 324zM1017 1478l-43 118l456 224l39 -123zM1385 1491q-65 -111 -178 -165q-98 -46 -226 -46q-127 0 -205 46q-90 53 -106 165h133q49 -94 203 -94q68 0 129 21q70 24 117 73h133z" />
    <glyph glyph-name="uni1EB0" unicode="&#x1eb0;" horiz-adv-x="1515" 
d="M1327 0l-112 510h-704l-329 -510h-158l969 1516h170l329 -1516h-165zM1042 1343l-444 -696h588zM1252 1863l-359 219l92 123l360 -224zM1503 1823q-63 -111 -177 -165q-98 -46 -225 -46q-128 0 -206 46q-89 53 -107 165h134q50 -94 204 -94q68 0 128 21q70 24 116 73h133
z" />
    <glyph glyph-name="uni1EB1" unicode="&#x1eb1;" horiz-adv-x="1398" 
d="M1128 0l42 197h-4q-196 -224 -484 -224q-253 0 -391 169q-139 169 -85 421q53 250 266 419q210 167 460 167q293 0 388 -225h4l42 196h144l-238 -1120h-144zM1196 883q-102 137 -291 137q-199 0 -357 -132t-201 -331q-41 -196 62 -326q104 -129 301 -129q189 0 348 135
q158 133 198 322t-60 324zM1147 1539l-358 219l91 123l360 -224zM1385 1491q-65 -111 -178 -165q-98 -46 -226 -46q-127 0 -205 46q-90 53 -106 165h133q49 -94 203 -94q68 0 129 21q70 24 117 73h133z" />
    <glyph glyph-name="uni1EB2" unicode="&#x1eb2;" horiz-adv-x="1515" 
d="M1327 0l-112 510h-704l-329 -510h-158l969 1516h170l329 -1516h-165zM1042 1343l-444 -696h588zM1389 2045q-10 -11 -29 -28l-16 -14l-50 -40q-15 -14 -29 -30q-24 -27 -40 -87h-127l6 27q11 51 49 99q11 14 35 36q10 9 31 26l33 26q16 14 30 28q20 22 26 49q9 42 -12 66
q-23 27 -55 27q-46 0 -83 -42q-13 -15 -20 -34q-4 -11 -15 -61h-129l8 39q17 81 98 144q74 57 165 57q93 0 139 -56q49 -61 32 -142q-10 -46 -47 -90zM1503 1823q-63 -111 -177 -165q-98 -46 -225 -46q-128 0 -206 46q-89 53 -107 165h134q50 -94 204 -94q68 0 128 21
q70 24 116 73h133z" />
    <glyph glyph-name="uni1EB3" unicode="&#x1eb3;" horiz-adv-x="1398" 
d="M1128 0l42 197h-4q-196 -224 -484 -224q-253 0 -391 169q-139 169 -85 421q53 250 266 419q210 167 460 167q293 0 388 -225h4l42 196h144l-238 -1120h-144zM1196 883q-102 137 -291 137q-199 0 -357 -132t-201 -331q-41 -196 62 -326q104 -129 301 -129q189 0 348 135
q158 133 198 322t-60 324zM1268 1703q-9 -11 -29 -28l-16 -14l-50 -40q-15 -14 -29 -30q-24 -27 -39 -87h-127l5 27q11 51 49 99q11 14 35 36q10 9 32 26l32 26q16 14 30 28q21 22 26 49q9 42 -12 66q-23 27 -55 27q-46 0 -83 -42q-13 -15 -20 -34q-4 -11 -15 -61h-129l8 39
q18 81 98 144q74 57 165 57q93 0 139 -56q49 -61 32 -142q-10 -46 -47 -90zM1385 1491q-65 -111 -178 -165q-98 -46 -226 -46q-127 0 -205 46q-90 53 -106 165h133q49 -94 203 -94q68 0 129 21q70 24 117 73h133z" />
    <glyph glyph-name="uni1EB4" unicode="&#x1eb4;" horiz-adv-x="1515" 
d="M1327 0l-112 510h-704l-329 -510h-158l969 1516h170l329 -1516h-165zM1042 1343l-444 -696h588zM1643 1987q-123 -79 -216 -79q-41 0 -83 13q-27 8 -68 29l-63 28q-35 14 -66 14q-72 0 -150 -62l-50 103q110 86 231 86q40 0 79 -14q27 -8 67 -28q2 -2 8 -4q5 -3 8 -4
q9 -5 15 -8l30 -13q36 -13 67 -13q32 0 70 17l52 26l18 10zM1503 1823q-63 -111 -177 -165q-98 -46 -225 -46q-128 0 -206 46q-89 53 -107 165h134q50 -94 204 -94q68 0 128 21q70 24 116 73h133z" />
    <glyph glyph-name="uni1EB5" unicode="&#x1eb5;" horiz-adv-x="1398" 
d="M1128 0l42 197h-4q-196 -224 -484 -224q-253 0 -391 169q-139 169 -85 421q53 250 266 419q210 167 460 167q293 0 388 -225h4l42 196h144l-238 -1120h-144zM1196 883q-102 137 -291 137q-199 0 -357 -132t-201 -331q-41 -196 62 -326q104 -129 301 -129q189 0 348 135
q158 133 198 322t-60 324zM1479 1674q-125 -80 -218 -80q-41 0 -83 13q-27 9 -67 29l-63 29q-35 13 -66 13q-72 0 -150 -61l-51 102q111 86 232 86q40 0 79 -13q26 -9 67 -29q1 -1 7 -4q5 -2 8 -4q9 -4 15 -7l30 -14q36 -13 67 -13q32 0 71 18l52 26l17 9zM1385 1491
q-65 -111 -178 -165q-98 -46 -226 -46q-127 0 -205 46q-90 53 -106 165h133q49 -94 203 -94q68 0 129 21q70 24 117 73h133z" />
    <glyph glyph-name="uni1EB6" unicode="&#x1eb6;" horiz-adv-x="1515" 
d="M1327 0l-112 510h-704l-329 -510h-158l969 1516h170l329 -1516h-165zM1042 1343l-444 -696h588zM600 -385l55 259h152l-55 -259h-152zM1503 1823q-63 -111 -177 -165q-98 -46 -225 -46q-128 0 -206 46q-89 53 -107 165h134q50 -94 204 -94q68 0 128 21q70 24 116 73h133z
" />
    <glyph glyph-name="uni1EB7" unicode="&#x1eb7;" horiz-adv-x="1398" 
d="M1128 0l42 197h-4q-196 -224 -484 -224q-253 0 -391 169q-139 169 -85 421q53 250 266 419q210 167 460 167q293 0 388 -225h4l42 196h144l-238 -1120h-144zM1196 883q-102 137 -291 137q-199 0 -357 -132t-201 -331q-41 -196 62 -326q104 -129 301 -129q189 0 348 135
q158 133 198 322t-60 324zM521 -385l55 259h152l-55 -259h-152zM1385 1491q-65 -111 -178 -165q-98 -46 -226 -46q-127 0 -205 46q-90 53 -106 165h133q49 -94 203 -94q68 0 129 21q70 24 117 73h133z" />
    <glyph glyph-name="uni1EB8" unicode="&#x1eb8;" horiz-adv-x="1097" 
d="M143 0l322 1516h829l-29 -138h-677l-116 -544h655l-29 -138h-655l-119 -559h677l-29 -137h-829zM400 -385l55 259h152l-55 -259h-152z" />
    <glyph glyph-name="uni1EB9" unicode="&#x1eb9;" horiz-adv-x="1331" 
d="M1352 508h-1020q-27 -165 78 -286q104 -120 270 -120q132 0 257 70q130 73 201 195h152q-100 -176 -275 -285t-360 -109q-242 0 -377 173q-134 171 -83 413q52 241 259 415q209 175 449 175q244 0 378 -179q133 -177 81 -421zM1234 637q7 166 -91 274q-99 109 -266 109
q-166 0 -312 -109q-144 -108 -206 -274h875zM504 -385l55 259h152l-55 -259h-152z" />
    <glyph glyph-name="uni1EBA" unicode="&#x1eba;" horiz-adv-x="1097" 
d="M143 0l322 1516h829l-29 -138h-677l-116 -544h655l-29 -138h-655l-119 -559h677l-29 -137h-829zM1125 1794q-9 -11 -29 -28l-16 -14l-49 -40q-15 -14 -29 -30q-24 -27 -40 -87h-127l6 27q11 51 49 99q11 14 34 36q10 9 32 26l33 26q15 14 29 28q21 22 27 49q9 42 -12 66
q-23 27 -55 27q-46 0 -83 -42q-13 -15 -21 -34q-4 -11 -14 -61h-129l8 39q17 81 97 144q75 57 166 57q93 0 139 -56q49 -61 31 -142q-9 -46 -47 -90z" />
    <glyph glyph-name="uni1EBB" unicode="&#x1ebb;" horiz-adv-x="1331" 
d="M1352 508h-1020q-27 -165 78 -286q104 -120 270 -120q132 0 257 70q130 73 201 195h152q-100 -176 -275 -285t-360 -109q-242 0 -377 173q-134 171 -83 413q52 241 259 415q209 175 449 175q244 0 378 -179q133 -177 81 -421zM1234 637q7 166 -91 274q-99 109 -266 109
q-166 0 -312 -109q-144 -108 -206 -274h875zM1141 1442q-9 -11 -29 -28l-16 -14l-49 -40q-15 -14 -30 -30q-23 -27 -39 -87h-127l6 27q10 51 49 99q11 14 34 36q10 9 32 26l32 26q16 14 30 28q21 22 27 49q9 42 -12 66q-24 27 -56 27q-46 0 -82 -42q-14 -15 -21 -34
q-4 -11 -15 -61h-129l9 39q17 81 97 144q74 57 165 57q93 0 139 -56q49 -61 32 -142q-10 -46 -47 -90z" />
    <glyph glyph-name="uni1EBC" unicode="&#x1ebc;" horiz-adv-x="1097" 
d="M143 0l322 1516h829l-29 -138h-677l-116 -544h655l-29 -138h-655l-119 -559h677l-29 -137h-829zM1297 1726q-124 -79 -217 -79q-41 0 -82 13q-27 8 -68 29l-63 28q-35 14 -66 14q-72 0 -150 -62l-50 103q110 86 231 86q40 0 79 -14q26 -8 67 -28q2 -2 7 -4l8 -4
q9 -5 16 -8l30 -13q35 -13 66 -13q32 0 71 17l51 26l18 10z" />
    <glyph glyph-name="uni1EBD" unicode="&#x1ebd;" horiz-adv-x="1331" 
d="M1352 508h-1020q-27 -165 78 -286q104 -120 270 -120q132 0 257 70q130 73 201 195h152q-100 -176 -275 -285t-360 -109q-242 0 -377 173q-134 171 -83 413q52 241 259 415q209 175 449 175q244 0 378 -179q133 -177 81 -421zM1234 637q7 166 -91 274q-99 109 -266 109
q-166 0 -312 -109q-144 -108 -206 -274h875zM1315 1413q-125 -80 -218 -80q-41 0 -82 13q-27 9 -68 29l-63 29q-35 13 -66 13q-72 0 -150 -61l-50 102q111 86 231 86q40 0 80 -13q26 -9 66 -29q3 -1 8 -4q5 -2 7 -4q9 -4 16 -7l31 -14q34 -13 65 -13q32 0 72 18l51 26l17 9z
" />
    <glyph glyph-name="uni1EBE" unicode="&#x1ebe;" horiz-adv-x="1097" 
d="M143 0l322 1516h829l-29 -138h-677l-116 -544h655l-29 -138h-655l-119 -559h677l-29 -137h-829zM1195 1793l-43 118l456 224l39 -123zM1078 1642l-144 150l-213 -150h-186l351 256h135l239 -256h-182z" />
    <glyph glyph-name="uni1EBF" unicode="&#x1ebf;" horiz-adv-x="1331" 
d="M1352 508h-1020q-27 -165 78 -286q104 -120 270 -120q132 0 257 70q130 73 201 195h152q-100 -176 -275 -285t-360 -109q-242 0 -377 173q-134 171 -83 413q52 241 259 415q209 175 449 175q244 0 378 -179q133 -177 81 -421zM1234 637q7 166 -91 274q-99 109 -266 109
q-166 0 -312 -109q-144 -108 -206 -274h875zM1231 1459l-42 118l454 224l40 -123zM1123 1309l-144 149l-212 -149h-187l351 256h135l239 -256h-182z" />
    <glyph glyph-name="uni1EC0" unicode="&#x1ec0;" horiz-adv-x="1097" 
d="M143 0l322 1516h829l-29 -138h-677l-116 -544h655l-29 -138h-655l-119 -559h677l-29 -137h-829zM1173 1853l-359 219l92 123l360 -224zM1078 1642l-144 150l-213 -150h-186l351 256h135l239 -256h-182z" />
    <glyph glyph-name="uni1EC1" unicode="&#x1ec1;" horiz-adv-x="1331" 
d="M1352 508h-1020q-27 -165 78 -286q104 -120 270 -120q132 0 257 70q130 73 201 195h152q-100 -176 -275 -285t-360 -109q-242 0 -377 173q-134 171 -83 413q52 241 259 415q209 175 449 175q244 0 378 -179q133 -177 81 -421zM1234 637q7 166 -91 274q-99 109 -266 109
q-166 0 -312 -109q-144 -108 -206 -274h875zM1242 1539l-360 219l92 123l360 -224zM1123 1309l-144 149l-212 -149h-187l351 256h135l239 -256h-182z" />
    <glyph glyph-name="uni1EC2" unicode="&#x1ec2;" horiz-adv-x="1097" 
d="M143 0l322 1516h829l-29 -138h-677l-116 -544h655l-29 -138h-655l-119 -559h677l-29 -137h-829zM1409 2045q-10 -11 -29 -28l-16 -14l-50 -40q-15 -14 -29 -30q-24 -27 -40 -87h-127l6 27q11 51 49 99q11 14 35 36q10 9 31 26l33 26q16 14 30 28q20 22 26 49q9 42 -12 66
q-23 27 -55 27q-46 0 -83 -42q-13 -15 -20 -34q-4 -11 -15 -61h-129l8 39q17 81 98 144q74 57 165 57q93 0 139 -56q49 -61 32 -142q-10 -46 -47 -90zM1078 1642l-144 150l-213 -150h-186l351 256h135l239 -256h-182z" />
    <glyph glyph-name="uni1EC3" unicode="&#x1ec3;" horiz-adv-x="1331" 
d="M1352 508h-1020q-27 -165 78 -286q104 -120 270 -120q132 0 257 70q130 73 201 195h152q-100 -176 -275 -285t-360 -109q-242 0 -377 173q-134 171 -83 413q52 241 259 415q209 175 449 175q244 0 378 -179q133 -177 81 -421zM1234 637q7 166 -91 274q-99 109 -266 109
q-166 0 -312 -109q-144 -108 -206 -274h875zM1460 1713q-10 -11 -29 -28l-16 -14l-50 -40q-15 -14 -29 -30q-24 -27 -40 -87h-127l6 27q11 51 49 99q11 14 35 36q10 9 31 26l33 26q16 14 30 28q21 22 26 49q9 42 -12 66q-23 27 -55 27q-46 0 -83 -42q-13 -15 -20 -34
q-4 -11 -15 -61h-129l8 39q17 81 98 144q74 57 165 57q93 0 139 -56q49 -61 32 -142q-10 -46 -47 -90zM1123 1309l-144 149l-212 -149h-187l351 256h135l239 -256h-182z" />
    <glyph glyph-name="uni1EC4" unicode="&#x1ec4;" horiz-adv-x="1097" 
d="M143 0l322 1516h829l-29 -138h-677l-116 -544h655l-29 -138h-655l-119 -559h677l-29 -137h-829zM1421 1977q-124 -79 -217 -79q-41 0 -82 13q-27 8 -68 29l-63 28q-35 14 -66 14q-72 0 -150 -62l-50 103q110 86 231 86q40 0 79 -14q27 -8 67 -28q2 -2 8 -4q5 -3 8 -4
q9 -5 15 -8l30 -13q35 -13 66 -13q32 0 71 17l52 26l18 10zM1078 1642l-144 150l-213 -150h-186l351 256h135l239 -256h-182z" />
    <glyph glyph-name="uni1EC5" unicode="&#x1ec5;" horiz-adv-x="1331" 
d="M1352 508h-1020q-27 -165 78 -286q104 -120 270 -120q132 0 257 70q130 73 201 195h152q-100 -176 -275 -285t-360 -109q-242 0 -377 173q-134 171 -83 413q52 241 259 415q209 175 449 175q244 0 378 -179q133 -177 81 -421zM1234 637q7 166 -91 274q-99 109 -266 109
q-166 0 -312 -109q-144 -108 -206 -274h875zM1488 1663q-125 -80 -218 -80q-41 0 -82 13q-27 9 -68 29l-63 29q-35 13 -66 13q-72 0 -150 -61l-50 102q111 86 231 86q40 0 80 -13q26 -9 66 -29q3 -1 8 -4q5 -2 7 -4q9 -4 16 -7l31 -14q34 -13 65 -13q32 0 72 18l51 26l17 9z
M1123 1309l-144 149l-212 -149h-187l351 256h135l239 -256h-182z" />
    <glyph glyph-name="uni1EC6" unicode="&#x1ec6;" horiz-adv-x="1097" 
d="M143 0l322 1516h829l-29 -138h-677l-116 -544h655l-29 -138h-655l-119 -559h677l-29 -137h-829zM400 -385l55 259h152l-55 -259h-152zM1078 1642l-144 150l-213 -150h-186l351 256h135l239 -256h-182z" />
    <glyph glyph-name="uni1EC7" unicode="&#x1ec7;" horiz-adv-x="1331" 
d="M1352 508h-1020q-27 -165 78 -286q104 -120 270 -120q132 0 257 70q130 73 201 195h152q-100 -176 -275 -285t-360 -109q-242 0 -377 173q-134 171 -83 413q52 241 259 415q209 175 449 175q244 0 378 -179q133 -177 81 -421zM1234 637q7 166 -91 274q-99 109 -266 109
q-166 0 -312 -109q-144 -108 -206 -274h875zM504 -385l55 259h152l-55 -259h-152zM1123 1309l-144 149l-212 -149h-187l351 256h135l239 -256h-182z" />
    <glyph glyph-name="uni1EC8" unicode="&#x1ec8;" horiz-adv-x="462" 
d="M155 0l322 1516h151l-322 -1516h-151zM803 1794q-9 -11 -29 -28l-16 -14l-49 -40q-15 -14 -29 -30q-24 -27 -40 -87h-127l6 27q11 51 49 99q11 14 34 36q10 9 32 26l33 26q15 14 29 28q21 22 27 49q9 42 -12 66q-23 27 -55 27q-46 0 -83 -42q-13 -15 -21 -34
q-4 -11 -14 -61h-129l8 39q17 81 97 144q75 57 166 57q93 0 139 -56q49 -61 31 -142q-9 -46 -47 -90z" />
    <glyph glyph-name="uni1EC9" unicode="&#x1ec9;" horiz-adv-x="409" 
d="M133 0l238 1120h144l-238 -1120h-144zM691 1442q-10 -11 -29 -28l-16 -14l-50 -40q-15 -14 -29 -30q-24 -27 -40 -87h-127l6 27q11 51 49 99q11 14 35 36q10 9 31 26l33 26q16 14 30 28q20 22 26 49q9 42 -12 66q-23 27 -55 27q-46 0 -83 -42q-13 -15 -20 -34
q-5 -11 -15 -61h-129l8 39q17 81 98 144q74 57 165 57q93 0 139 -56q49 -61 32 -142q-10 -46 -47 -90z" />
    <glyph glyph-name="uni1ECA" unicode="&#x1eca;" horiz-adv-x="462" 
d="M155 0l322 1516h152l-322 -1516h-152zM78 -385l55 259h152l-55 -259h-152z" />
    <glyph glyph-name="uni1ECB" unicode="&#x1ecb;" horiz-adv-x="409" 
d="M401 1257l55 259h143l-55 -259h-143zM134 0l238 1120h143l-238 -1120h-143zM43 -385l55 259h152l-55 -259h-152z" />
    <glyph glyph-name="uni1ECC" unicode="&#x1ecc;" horiz-adv-x="1779" 
d="M1495 201q-285 -228 -612 -228q-322 0 -512 226q-192 230 -124 551q70 330 355 562q283 230 615 230q328 0 515 -228q190 -230 121 -556t-358 -557zM1606 1214q-152 191 -419 191q-270 0 -501 -193q-230 -193 -287 -462q-55 -262 98 -451q152 -188 415 -188
q266 0 499 189t290 456q56 267 -95 458zM732 -385l55 259h152l-55 -259h-152z" />
    <glyph glyph-name="uni1ECD" unicode="&#x1ecd;" 
d="M1115 147q-210 -174 -451 -174q-237 0 -374 172t-87 408q52 244 259 419q209 177 452 177q239 0 376 -174t86 -414q-51 -241 -261 -414zM1173 885q-102 135 -285 135q-188 0 -346 -140q-155 -136 -195 -325q-40 -184 61 -318q101 -135 285 -135q190 0 348 138
q152 135 193 327q39 184 -61 318zM514 -385l55 259h152l-55 -259h-152z" />
    <glyph glyph-name="uni1ECE" unicode="&#x1ece;" horiz-adv-x="1779" 
d="M1495 201q-285 -228 -612 -228q-322 0 -512 226q-192 230 -124 551q70 330 355 562q283 230 615 230q328 0 515 -228q190 -230 121 -556t-358 -557zM1606 1214q-152 191 -419 191q-270 0 -501 -193q-230 -193 -287 -462q-55 -262 98 -451q152 -188 415 -188
q266 0 499 189t290 456q56 267 -95 458zM1459 1794q-9 -11 -29 -28l-16 -14l-49 -40q-15 -14 -30 -30q-23 -27 -39 -87h-127l6 27q10 51 49 99q11 14 34 36q10 9 32 26l32 26q16 14 30 28q21 22 27 49q9 42 -12 66q-24 27 -56 27q-46 0 -82 -42q-14 -15 -21 -34
q-4 -11 -15 -61h-129l9 39q17 81 97 144q74 57 165 57q93 0 139 -56q49 -61 32 -142q-10 -46 -47 -90z" />
    <glyph glyph-name="uni1ECF" unicode="&#x1ecf;" 
d="M1115 147q-210 -174 -451 -174q-237 0 -374 172t-87 408q52 244 259 419q209 177 452 177q239 0 376 -174t86 -414q-51 -241 -261 -414zM1173 885q-102 135 -285 135q-188 0 -346 -140q-155 -136 -195 -325q-40 -184 61 -318q101 -135 285 -135q190 0 348 138
q152 135 193 327q39 184 -61 318zM1172 1442q-9 -11 -29 -28l-16 -14l-49 -40q-15 -14 -30 -30q-23 -27 -39 -87h-127l6 27q10 51 49 99q11 14 34 36q10 9 32 26l32 26q16 14 30 28q21 22 27 49q9 42 -12 66q-24 27 -56 27q-46 0 -82 -42q-14 -15 -21 -34q-4 -11 -15 -61
h-129l9 39q17 81 97 144q74 57 165 57q93 0 139 -56q49 -61 32 -142q-10 -46 -47 -90z" />
    <glyph glyph-name="uni1ED0" unicode="&#x1ed0;" horiz-adv-x="1779" 
d="M1495 201q-285 -228 -612 -228q-322 0 -512 226q-192 230 -124 551q70 330 355 562q283 230 615 230q328 0 515 -228q190 -230 121 -556t-358 -557zM1606 1214q-152 191 -419 191q-270 0 -501 -193q-230 -193 -287 -462q-55 -262 98 -451q152 -188 415 -188
q266 0 499 189t290 456q56 267 -95 458zM1534 1773l-43 118l455 224l40 -123zM1420 1642l-144 150l-212 -150h-187l351 256h136l238 -256h-182z" />
    <glyph glyph-name="uni1ED1" unicode="&#x1ed1;" 
d="M1115 147q-210 -174 -451 -174q-237 0 -374 172t-87 408q52 244 259 419q209 177 452 177q239 0 376 -174t86 -414q-51 -241 -261 -414zM1173 885q-102 135 -285 135q-188 0 -346 -140q-155 -136 -195 -325q-40 -184 61 -318q101 -135 285 -135q190 0 348 138
q152 135 193 327q39 184 -61 318zM1255 1449l-42 118l454 224l40 -123zM1130 1309l-144 149l-212 -149h-187l351 256h135l239 -256h-182z" />
    <glyph glyph-name="uni1ED2" unicode="&#x1ed2;" horiz-adv-x="1779" 
d="M1495 201q-285 -228 -612 -228q-322 0 -512 226q-192 230 -124 551q70 330 355 562q283 230 615 230q328 0 515 -228q190 -230 121 -556t-358 -557zM1606 1214q-152 191 -419 191q-270 0 -501 -193q-230 -193 -287 -462q-55 -262 98 -451q152 -188 415 -188
q266 0 499 189t290 456q56 267 -95 458zM1517 1863l-360 219l93 123l359 -224zM1420 1642l-144 150l-212 -150h-187l351 256h136l238 -256h-182z" />
    <glyph glyph-name="uni1ED3" unicode="&#x1ed3;" 
d="M1115 147q-210 -174 -451 -174q-237 0 -374 172t-87 408q52 244 259 419q209 177 452 177q239 0 376 -174t86 -414q-51 -241 -261 -414zM1173 885q-102 135 -285 135q-188 0 -346 -140q-155 -136 -195 -325q-40 -184 61 -318q101 -135 285 -135q190 0 348 138
q152 135 193 327q39 184 -61 318zM1258 1539l-359 219l92 123l360 -224zM1130 1309l-144 149l-212 -149h-187l351 256h135l239 -256h-182z" />
    <glyph glyph-name="uni1ED4" unicode="&#x1ed4;" horiz-adv-x="1779" 
d="M1495 201q-285 -228 -612 -228q-322 0 -512 226q-192 230 -124 551q70 330 355 562q283 230 615 230q328 0 515 -228q190 -230 121 -556t-358 -557zM1606 1214q-152 191 -419 191q-270 0 -501 -193q-230 -193 -287 -462q-55 -262 98 -451q152 -188 415 -188
q266 0 499 189t290 456q56 267 -95 458zM1746 2055q-10 -11 -29 -28l-16 -14l-50 -40q-15 -14 -29 -30q-24 -27 -40 -87h-127l6 27q11 51 49 99q11 14 35 36q10 9 31 26l33 26q16 14 30 28q20 22 26 49q9 42 -12 66q-23 27 -55 27q-46 0 -83 -42q-13 -15 -20 -34
q-5 -11 -15 -61h-129l8 39q17 81 98 144q74 57 165 57q93 0 139 -56q49 -61 32 -142q-10 -46 -47 -90zM1420 1642l-144 150l-212 -150h-187l351 256h135l239 -256h-182z" />
    <glyph glyph-name="uni1ED5" unicode="&#x1ed5;" 
d="M1115 147q-210 -174 -451 -174q-237 0 -374 172t-87 408q52 244 259 419q209 177 452 177q239 0 376 -174t86 -414q-51 -241 -261 -414zM1173 885q-102 135 -285 135q-188 0 -346 -140q-155 -136 -195 -325q-40 -184 61 -318q101 -135 285 -135q190 0 348 138
q152 135 193 327q39 184 -61 318zM1469 1703q-10 -11 -29 -28l-16 -14l-50 -40q-15 -14 -29 -30q-24 -27 -40 -87h-127l6 27q11 51 49 99q11 14 35 36q10 9 31 26l33 26q16 14 30 28q20 22 26 49q9 42 -12 66q-23 27 -55 27q-46 0 -83 -42q-13 -15 -20 -34q-5 -11 -15 -61
h-129l8 39q17 81 98 144q74 57 165 57q93 0 139 -56q49 -61 32 -142q-10 -46 -47 -90zM1130 1309l-144 149l-212 -149h-187l351 256h135l239 -256h-182z" />
    <glyph glyph-name="uni1ED6" unicode="&#x1ed6;" horiz-adv-x="1779" 
d="M1495 201q-285 -228 -612 -228q-322 0 -512 226q-192 230 -124 551q70 330 355 562q283 230 615 230q328 0 515 -228q190 -230 121 -556t-358 -557zM1606 1214q-152 191 -419 191q-270 0 -501 -193q-230 -193 -287 -462q-55 -262 98 -451q152 -188 415 -188
q266 0 499 189t290 456q56 267 -95 458zM1778 1997q-125 -79 -218 -79q-41 0 -82 13q-27 8 -68 29l-63 28q-34 14 -66 14q-72 0 -150 -62l-49 103q110 86 231 86q39 0 79 -14q27 -8 66 -28q3 -2 9 -4q4 -3 7 -4q9 -5 15 -8l31 -13q34 -13 65 -13q32 0 72 17l52 26l17 10z
M1420 1642l-144 150l-212 -150h-187l351 256h136l238 -256h-182z" />
    <glyph glyph-name="uni1ED7" unicode="&#x1ed7;" 
d="M1115 147q-210 -174 -451 -174q-237 0 -374 172t-87 408q52 244 259 419q209 177 452 177q239 0 376 -174t86 -414q-51 -241 -261 -414zM1173 885q-102 135 -285 135q-188 0 -346 -140q-155 -136 -195 -325q-40 -184 61 -318q101 -135 285 -135q190 0 348 138
q152 135 193 327q39 184 -61 318zM1467 1663q-125 -80 -218 -80q-41 0 -82 13q-27 9 -68 29l-63 29q-35 13 -66 13q-72 0 -150 -61l-50 102q111 86 231 86q40 0 80 -13q26 -9 66 -29q3 -1 8 -4q5 -2 7 -4q9 -4 16 -7l31 -14q34 -13 65 -13q32 0 72 18l51 26l17 9zM1130 1309
l-144 149l-212 -149h-187l351 256h135l239 -256h-182z" />
    <glyph glyph-name="uni1ED8" unicode="&#x1ed8;" horiz-adv-x="1779" 
d="M1495 201q-285 -228 -612 -228q-322 0 -512 226q-192 230 -124 551q70 330 355 562q283 230 615 230q328 0 515 -228q190 -230 121 -556t-358 -557zM1606 1214q-152 191 -419 191q-270 0 -501 -193q-230 -193 -287 -462q-55 -262 98 -451q152 -188 415 -188
q266 0 499 189t290 456q56 267 -95 458zM732 -385l55 259h152l-55 -259h-152zM1420 1642l-144 150l-212 -150h-187l351 256h135l239 -256h-182z" />
    <glyph glyph-name="uni1ED9" unicode="&#x1ed9;" 
d="M1115 147q-210 -174 -451 -174q-237 0 -374 172t-87 408q52 244 259 419q209 177 452 177q239 0 376 -174t86 -414q-51 -241 -261 -414zM1173 885q-102 135 -285 135q-188 0 -346 -140q-155 -136 -195 -325q-40 -184 61 -318q101 -135 285 -135q190 0 348 138
q152 135 193 327q39 184 -61 318zM514 -385l55 259h152l-55 -259h-152zM1130 1309l-144 149l-212 -149h-187l351 256h135l239 -256h-182z" />
    <glyph glyph-name="uni1EDA" unicode="&#x1eda;" horiz-adv-x="1779" 
d="M1606 1214q-152 191 -419 191q-270 0 -501 -193q-230 -193 -287 -462q-55 -262 98 -451q152 -188 415 -188q266 0 499 189t290 456q56 267 -95 458zM1155 1602l-43 118l456 224l40 -123zM1702 1348q16 -16 30 -34q190 -230 121 -556t-358 -557q-285 -228 -612 -228
q-322 0 -512 226q-192 230 -124 551q70 330 355 562q283 230 615 230q235 0 398 -117q24 10 38 16q22 9 67 38t59 71h-65l39 180h189l-40 -186q-17 -49 -42 -81.5t-55.5 -54.5t-51.5 -34q-18 -11 -51 -26z" />
    <glyph glyph-name="uni1EDB" unicode="&#x1edb;" 
d="M1173 885q-102 135 -285 135q-188 0 -346 -140q-155 -136 -195 -325q-40 -184 61 -318q101 -135 285 -135q190 0 348 138q152 135 193 327q39 184 -61 318zM844 1268l-42 118l455 224l40 -123zM1299 962q126 -170 77 -401q-51 -241 -261 -414q-210 -174 -451 -174
q-237 0 -374 172t-87 408q52 244 259 419q209 177 452 177q188 0 312 -107q16 7 25 11q21 9 63.5 38t56.5 71h-61l38 180h176l-40 -186q-17 -49 -40.5 -81.5t-51.5 -54.5t-49 -34q-17 -10 -44 -24z" />
    <glyph glyph-name="uni1EDC" unicode="&#x1edc;" horiz-adv-x="1779" 
d="M1606 1214q-152 191 -419 191q-270 0 -501 -193q-230 -193 -287 -462q-55 -262 98 -451q152 -188 415 -188q266 0 499 189t290 456q56 267 -95 458zM1391 1602l-359 219l92 123l359 -224zM1702 1348q16 -16 30 -34q190 -230 121 -556t-358 -557q-285 -228 -612 -228
q-322 0 -512 226q-192 230 -124 551q70 330 355 562q283 230 615 230q235 0 398 -117q24 10 38 16q22 9 67 38t59 71h-65l39 180h189l-40 -186q-17 -49 -42 -81.5t-55.5 -54.5t-51.5 -34q-18 -11 -51 -26z" />
    <glyph glyph-name="uni1EDD" unicode="&#x1edd;" 
d="M1173 885q-102 135 -285 135q-188 0 -346 -140q-155 -136 -195 -325q-40 -184 61 -318q101 -135 285 -135q190 0 348 138q152 135 193 327q39 184 -61 318zM1100 1268l-358 219l92 123l359 -224zM1299 962q126 -170 77 -401q-51 -241 -261 -414q-210 -174 -451 -174
q-237 0 -374 172t-87 408q52 244 259 419q209 177 452 177q188 0 312 -107q16 7 25 11q21 9 63.5 38t56.5 71h-61l38 180h176l-40 -186q-17 -49 -40.5 -81.5t-51.5 -54.5t-49 -34q-17 -10 -44 -24z" />
    <glyph glyph-name="uni1EDE" unicode="&#x1ede;" horiz-adv-x="1779" 
d="M1606 1214q-152 191 -419 191q-270 0 -501 -193q-230 -193 -287 -462q-55 -262 98 -451q152 -188 415 -188q266 0 499 189t290 456q56 267 -95 458zM1459 1794q-9 -11 -29 -28l-16 -14l-49 -40q-15 -14 -30 -30q-23 -27 -39 -87h-127l6 27q10 51 49 99q11 14 34 36
q10 9 32 26l32 26q16 14 30 28q21 22 27 49q9 42 -12 66q-24 27 -56 27q-46 0 -82 -42q-14 -15 -21 -34q-4 -11 -15 -61h-129l9 39q17 81 97 144q74 57 165 57q93 0 139 -56q49 -61 32 -142q-10 -46 -47 -90zM1702 1348q16 -16 30 -34q190 -230 121 -556t-358 -557
q-285 -228 -612 -228q-322 0 -512 226q-192 230 -124 551q70 330 355 562q283 230 615 230q235 0 398 -117q24 10 38 16q22 9 67 38t59 71h-65l39 180h189l-40 -186q-17 -49 -42 -81.5t-55.5 -54.5t-51.5 -34q-18 -11 -51 -26z" />
    <glyph glyph-name="uni1EDF" unicode="&#x1edf;" 
d="M1173 885q-102 135 -285 135q-188 0 -346 -140q-155 -136 -195 -325q-40 -184 61 -318q101 -135 285 -135q190 0 348 138q152 135 193 327q39 184 -61 318zM1172 1442q-9 -11 -29 -28l-16 -14l-49 -40q-15 -14 -30 -30q-23 -27 -39 -87h-127l6 27q10 51 49 99
q11 14 34 36q10 9 32 26l32 26q16 14 30 28q21 22 27 49q9 42 -12 66q-24 27 -56 27q-46 0 -82 -42q-14 -15 -21 -34q-4 -11 -15 -61h-129l9 39q17 81 97 144q74 57 165 57q93 0 139 -56q49 -61 32 -142q-10 -46 -47 -90zM1299 962q126 -170 77 -401q-51 -241 -261 -414
q-210 -174 -451 -174q-237 0 -374 172t-87 408q52 244 259 419q209 177 452 177q188 0 312 -107q16 7 25 11q21 9 63.5 38t56.5 71h-61l38 180h176l-40 -186q-17 -49 -40.5 -81.5t-51.5 -54.5t-49 -34q-17 -10 -44 -24z" />
    <glyph glyph-name="uni1EE0" unicode="&#x1ee0;" horiz-adv-x="1779" 
d="M1606 1214q-152 191 -419 191q-270 0 -501 -193q-230 -193 -287 -462q-55 -262 98 -451q152 -188 415 -188q266 0 499 189t290 456q56 267 -95 458zM1610 1726q-125 -79 -218 -79q-41 0 -82 13q-28 8 -68 29l-63 28q-34 14 -66 14q-72 0 -150 -62l-50 103q111 86 232 86
q39 0 79 -14q26 -8 66 -28q2 -2 8 -4q4 -3 7 -4q9 -5 15 -8l32 -13q34 -13 65 -13q32 0 72 17l51 26l17 10zM1702 1348q16 -16 30 -34q190 -230 121 -556t-358 -557q-285 -228 -612 -228q-322 0 -512 226q-192 230 -124 551q70 330 355 562q283 230 615 230q235 0 398 -117
q24 10 38 16q22 9 67 38t59 71h-65l39 180h189l-40 -186q-17 -49 -42 -81.5t-55.5 -54.5t-51.5 -34q-18 -11 -51 -26z" />
    <glyph glyph-name="uni1EE1" unicode="&#x1ee1;" 
d="M1173 885q-102 135 -285 135q-188 0 -346 -140q-155 -136 -195 -325q-40 -184 61 -318q101 -135 285 -135q190 0 348 138q152 135 193 327q39 184 -61 318zM1324 1413q-125 -80 -218 -80q-41 0 -82 13q-27 9 -68 29l-63 29q-35 13 -66 13q-72 0 -150 -61l-50 102
q111 86 231 86q40 0 80 -13q26 -9 66 -29q3 -1 8 -4q5 -2 7 -4q9 -4 16 -7l31 -14q34 -13 65 -13q32 0 72 18l51 26l17 9zM1299 962q126 -170 77 -401q-51 -241 -261 -414q-210 -174 -451 -174q-237 0 -374 172t-87 408q52 244 259 419q209 177 452 177q188 0 312 -107
q16 7 25 11q21 9 63.5 38t56.5 71h-61l38 180h176l-40 -186q-17 -49 -40.5 -81.5t-51.5 -54.5t-49 -34q-17 -10 -44 -24z" />
    <glyph glyph-name="uni1EE2" unicode="&#x1ee2;" horiz-adv-x="1779" 
d="M1606 1214q-152 191 -419 191q-270 0 -501 -193q-230 -193 -287 -462q-55 -262 98 -451q152 -188 415 -188q266 0 499 189t290 456q56 267 -95 458zM732 -385l55 259h152l-55 -259h-152zM1702 1348q16 -16 30 -34q190 -230 121 -556t-358 -557q-285 -228 -612 -228
q-322 0 -512 226q-192 230 -124 551q70 330 355 562q283 230 615 230q235 0 398 -117q24 10 38 16q22 9 67 38t59 71h-65l39 180h189l-40 -186q-17 -49 -42 -81.5t-55.5 -54.5t-51.5 -34q-18 -11 -51 -26z" />
    <glyph glyph-name="uni1EE3" unicode="&#x1ee3;" 
d="M1173 885q-102 135 -285 135q-188 0 -346 -140q-155 -136 -195 -325q-40 -184 61 -318q101 -135 285 -135q190 0 348 138q152 135 193 327q39 184 -61 318zM514 -385l55 259h152l-55 -259h-152zM1299 962q126 -170 77 -401q-51 -241 -261 -414q-210 -174 -451 -174
q-237 0 -374 172t-87 408q52 244 259 419q209 177 452 177q188 0 312 -107q16 7 25 11q21 9 63.5 38t56.5 71h-61l38 180h176l-40 -186q-17 -49 -40.5 -81.5t-51.5 -54.5t-49 -34q-17 -10 -44 -24z" />
    <glyph glyph-name="uni1EE4" unicode="&#x1ee4;" 
d="M1306 571q-18 -85 -46 -161q-34 -89 -78 -154q-192 -283 -519 -283t-399 283q-16 65 -11 154q3 76 21 161l201 945h152l-201 -945q-16 -74 -20 -140q-4 -84 13 -134q62 -186 273 -186t353 186q39 50 69 134q25 66 41 140l201 945h151zM511 -385l55 259h152l-55 -259h-152
z" />
    <glyph glyph-name="uni1EE5" unicode="&#x1ee5;" horiz-adv-x="1245" 
d="M972 0l37 174h-4q-68 -99 -181 -152q-103 -49 -220 -49q-252 0 -350 168q-40 70 -42 171q-2 82 21 190l131 618h143l-131 -616q-40 -188 13 -288q61 -114 242 -114q142 0 257 91q82 65 128 154q37 71 60 181l126 592h143l-238 -1120h-135zM513 -385l55 259h152l-55 -259
h-152z" />
    <glyph glyph-name="uni1EE6" unicode="&#x1ee6;" 
d="M1306 571q-18 -85 -46 -161q-34 -89 -78 -154q-192 -283 -519 -283t-399 283q-16 65 -11 154q3 76 21 161l201 945h152l-201 -945q-16 -74 -20 -140q-4 -84 13 -134q62 -186 273 -186t353 186q39 50 69 134q25 66 41 140l201 945h151zM1228 1794q-9 -11 -29 -28l-16 -14
l-49 -40q-15 -14 -30 -30q-23 -27 -39 -87h-127l6 27q10 51 49 99q11 14 34 36q10 9 32 26l32 26q16 14 30 28q21 22 27 49q9 42 -12 66q-24 27 -56 27q-46 0 -83 -42q-13 -15 -20 -34q-4 -11 -15 -61h-129l9 39q17 81 97 144q74 57 165 57q93 0 139 -56q49 -61 32 -142
q-10 -46 -47 -90z" />
    <glyph glyph-name="uni1EE7" unicode="&#x1ee7;" horiz-adv-x="1245" 
d="M972 0l37 174h-4q-68 -99 -181 -152q-103 -49 -220 -49q-252 0 -350 168q-40 70 -42 171q-2 82 21 190l131 618h143l-131 -616q-40 -188 13 -288q61 -114 242 -114q142 0 257 91q82 65 128 154q37 71 60 181l126 592h143l-238 -1120h-135zM1122 1442q-10 -11 -29 -28
l-16 -14l-50 -40q-15 -14 -29 -30q-24 -27 -40 -87h-127l6 27q11 51 49 99q11 14 35 36q10 9 31 26l33 26q16 14 30 28q21 22 26 49q9 42 -12 66q-23 27 -55 27q-46 0 -83 -42q-13 -15 -20 -34q-4 -11 -15 -61h-129l8 39q17 81 98 144q74 57 165 57q93 0 139 -56
q49 -61 32 -142q-10 -46 -47 -90z" />
    <glyph glyph-name="uni1EE8" unicode="&#x1ee8;" 
d="M894 1602l-42 118l455 224l40 -123zM1471 1344l-164 -773q-18 -85 -47 -161q-33 -89 -78 -154q-191 -283 -518 -283t-399 283q-16 65 -12 154q4 76 22 161l201 945h151l-201 -945q-16 -74 -20 -140q-3 -84 13 -134q63 -186 274 -186t353 186q39 50 69 134q24 66 40 140
l201 945h152l-8 -36q45 29 58 70h-65l38 180h189l-39 -186q-17 -49 -42 -81.5t-55.5 -54.5t-51.5 -34q-22 -12 -61 -30z" />
    <glyph glyph-name="uni1EE9" unicode="&#x1ee9;" horiz-adv-x="1245" 
d="M777 1268l-43 118l455 224l39 -123zM1310 954l-203 -954h-135l37 174h-4q-68 -99 -181 -152q-103 -49 -220 -49q-252 0 -350 168q-40 70 -42 171q-2 82 21 190l131 618h143l-131 -616q-40 -188 13 -288q61 -114 242 -114q142 0 257 91q82 65 128 154q37 71 60 181
l126 592h143l-7 -33l6 4q42 29 56 71h-61l39 180h176l-40 -186q-17 -49 -40.5 -81.5t-52 -54.5t-49.5 -34.5t-61 -32.5z" />
    <glyph glyph-name="uni1EEA" unicode="&#x1eea;" 
d="M1130 1602l-359 219l92 123l360 -224zM1471 1344l-164 -773q-18 -85 -47 -161q-33 -89 -78 -154q-191 -283 -518 -283t-399 283q-16 65 -12 154q4 76 22 161l201 945h151l-201 -945q-16 -74 -20 -140q-3 -84 13 -134q63 -186 274 -186t353 186q39 50 69 134q24 66 40 140
l201 945h152l-8 -36q45 29 58 70h-65l38 180h189l-39 -186q-17 -49 -42 -81.5t-55.5 -54.5t-51.5 -34q-22 -12 -61 -30z" />
    <glyph glyph-name="uni1EEB" unicode="&#x1eeb;" horiz-adv-x="1245" 
d="M1010 1268l-359 219l91 123l361 -224zM1310 954l-203 -954h-135l37 174h-4q-68 -99 -181 -152q-103 -49 -220 -49q-252 0 -350 168q-40 70 -42 171q-2 82 21 190l131 618h143l-131 -616q-40 -188 13 -288q61 -114 242 -114q142 0 257 91q82 65 128 154q37 71 60 181
l126 592h143l-7 -33l6 4q42 29 56 71h-61l39 180h176l-40 -186q-17 -49 -40.5 -81.5t-52 -54.5t-49.5 -34.5t-61 -32.5z" />
    <glyph glyph-name="uni1EEC" unicode="&#x1eec;" 
d="M1227 1794q-9 -11 -29 -28l-16 -14l-49 -40q-15 -14 -30 -30q-23 -27 -39 -87h-127l6 27q10 51 49 99q11 14 34 36q10 9 32 26l32 26q16 14 30 28q21 22 27 49q9 42 -12 66q-24 27 -56 27q-46 0 -83 -42q-13 -15 -20 -34q-4 -11 -15 -61h-129l9 39q17 81 97 144
q74 57 165 57q93 0 139 -56q49 -61 32 -142q-10 -46 -47 -90zM1470 1344l-164 -773q-18 -85 -47 -161q-33 -89 -78 -154q-191 -283 -518 -283t-399 283q-16 65 -12 154q4 76 22 161l201 945h151l-201 -945q-16 -74 -20 -140q-3 -84 13 -134q63 -186 274 -186t353 186
q39 50 69 134q24 66 40 140l201 945h152l-8 -36q45 29 58 70h-65l38 180h189l-39 -186q-17 -49 -42 -81.5t-55.5 -54.5t-51.5 -34q-22 -12 -61 -30z" />
    <glyph glyph-name="uni1EED" unicode="&#x1eed;" horiz-adv-x="1245" 
d="M1122 1442q-10 -11 -29 -28l-16 -14l-50 -40q-15 -14 -29 -30q-24 -27 -40 -87h-127l6 27q11 51 49 99q11 14 35 36q10 9 31 26l33 26q16 14 30 28q21 22 26 49q9 42 -12 66q-23 27 -55 27q-46 0 -83 -42q-13 -15 -20 -34q-4 -11 -15 -61h-129l8 39q17 81 98 144
q74 57 165 57q93 0 139 -56q49 -61 32 -142q-10 -46 -47 -90zM1310 954l-203 -954h-135l37 174h-4q-68 -99 -181 -152q-103 -49 -220 -49q-252 0 -350 168q-40 70 -42 171q-2 82 21 190l131 618h143l-131 -616q-40 -188 13 -288q61 -114 242 -114q142 0 257 91
q82 65 128 154q37 71 60 181l126 592h143l-7 -33l6 4q42 29 56 71h-61l39 180h176l-40 -186q-17 -49 -40.5 -81.5t-52 -54.5t-49.5 -34.5t-61 -32.5z" />
    <glyph glyph-name="uni1EEE" unicode="&#x1eee;" 
d="M1379 1726q-125 -79 -218 -79q-41 0 -82 13q-28 8 -68 29l-63 28q-34 14 -66 14q-72 0 -150 -62l-50 103q111 86 232 86q39 0 79 -14q26 -8 66 -28q2 -2 8 -4q4 -3 7 -4q9 -5 15 -8l32 -13q34 -13 65 -13q32 0 71 17l52 26l17 10zM1470 1344l-164 -773q-18 -85 -47 -161
q-33 -89 -78 -154q-191 -283 -518 -283t-399 283q-16 65 -12 154q4 76 22 161l201 945h151l-201 -945q-16 -74 -20 -140q-3 -84 13 -134q63 -186 274 -186t353 186q39 50 69 134q24 66 40 140l201 945h152l-8 -36q45 29 58 70h-65l38 180h189l-39 -186q-17 -49 -42 -81.5
t-55.5 -54.5t-51.5 -34q-22 -12 -61 -30z" />
    <glyph glyph-name="uni1EEF" unicode="&#x1eef;" horiz-adv-x="1245" 
d="M1324 1413q-125 -80 -218 -80q-41 0 -83 13q-27 9 -67 29l-63 29q-36 13 -67 13q-72 0 -150 -61l-50 102q111 86 231 86q40 0 81 -13q26 -9 66 -29l8 -4q4 -2 7 -4q9 -4 15 -7l31 -14q35 -13 66 -13q32 0 71 18l52 26l17 9zM1310 954l-203 -954h-135l37 174h-4
q-68 -99 -181 -152q-103 -49 -220 -49q-252 0 -350 168q-40 70 -42 171q-2 82 21 190l131 618h143l-131 -616q-40 -188 13 -288q61 -114 242 -114q142 0 257 91q82 65 128 154q37 71 60 181l126 592h143l-7 -33l6 4q42 29 56 71h-61l39 180h176l-40 -186
q-17 -49 -40.5 -81.5t-52 -54.5t-49.5 -34.5t-61 -32.5z" />
    <glyph glyph-name="uni1EF0" unicode="&#x1ef0;" 
d="M511 -385l55 259h152l-55 -259h-152zM1470 1344l-164 -773q-18 -85 -47 -161q-33 -89 -78 -154q-191 -283 -518 -283t-399 283q-16 65 -12 154q4 76 22 161l201 945h151l-201 -945q-16 -74 -20 -140q-3 -84 13 -134q63 -186 274 -186t353 186q39 50 69 134q24 66 40 140
l201 945h152l-8 -36q45 29 58 70h-65l38 180h189l-39 -186q-17 -49 -42 -81.5t-55.5 -54.5t-51.5 -34q-22 -12 -61 -30z" />
    <glyph glyph-name="uni1EF1" unicode="&#x1ef1;" horiz-adv-x="1245" 
d="M513 -385l55 259h152l-55 -259h-152zM1310 954l-203 -954h-135l37 174h-4q-68 -99 -181 -152q-103 -49 -220 -49q-252 0 -350 168q-40 70 -42 171q-2 82 21 190l131 618h143l-131 -616q-40 -188 13 -288q61 -114 242 -114q142 0 257 91q82 65 128 154q37 71 60 181
l126 592h143l-7 -33l6 4q42 29 56 71h-61l39 180h176l-40 -186q-17 -49 -40.5 -81.5t-52 -54.5t-49.5 -34.5t-61 -32.5z" />
    <glyph glyph-name="Ygrave" unicode="&#x1ef2;" horiz-adv-x="1212" 
d="M787 506l-107 -506h-152l107 506l-311 1010h168l251 -850l625 850h166zM1130 1602l-359 219l92 123l360 -224z" />
    <glyph glyph-name="ygrave" unicode="&#x1ef3;" horiz-adv-x="1097" 
d="M337 -393h-149l285 430l-205 1083h152l166 -893l571 893h151zM626 1487l91 123l360 -224l-93 -118z" />
    <glyph glyph-name="uni1EF4" unicode="&#x1ef4;" horiz-adv-x="1212" 
d="M787 506l-107 -506h-152l107 506l-311 1010h168l251 -850l625 850h166zM451 -385l55 259h152l-55 -259h-152z" />
    <glyph glyph-name="uni1EF5" unicode="&#x1ef5;" horiz-adv-x="1097" 
d="M337 -393h-149l285 430l-205 1083h152l166 -893l571 893h151zM513 -385l55 259h152l-55 -259h-152z" />
    <glyph glyph-name="uni1EF6" unicode="&#x1ef6;" horiz-adv-x="1212" 
d="M787 506l-107 -506h-152l107 506l-311 1010h168l251 -850l625 850h166zM1177 1794q-9 -11 -29 -28l-16 -14l-49 -40q-15 -14 -30 -30q-23 -27 -39 -87h-127l6 27q10 51 49 99q11 14 34 36q10 9 32 26l32 26q16 14 30 28q21 22 27 49q9 42 -12 66q-24 27 -56 27
q-46 0 -83 -42q-13 -15 -20 -34q-4 -11 -15 -61h-129l9 39q17 81 97 144q74 57 165 57q93 0 139 -56q49 -61 32 -142q-10 -46 -47 -90z" />
    <glyph glyph-name="uni1EF7" unicode="&#x1ef7;" horiz-adv-x="1097" 
d="M337 -393h-149l285 430l-205 1083h152l166 -893l571 893h151zM1081 1442q-9 -11 -29 -28l-16 -14l-49 -40q-15 -14 -30 -30q-24 -27 -39 -87h-127l5 27q11 51 50 99q11 14 34 36q10 9 32 26l32 26q16 14 30 28q21 22 27 49q9 42 -12 66q-24 27 -56 27q-46 0 -83 -42
q-13 -15 -20 -34q-4 -11 -15 -61h-129l9 39q17 81 97 144q74 57 165 57q93 0 139 -56q49 -61 32 -142q-10 -46 -47 -90z" />
    <glyph glyph-name="uni1EF8" unicode="&#x1ef8;" horiz-adv-x="1212" 
d="M787 506l-107 -506h-152l107 506l-311 1010h168l251 -850l625 850h166zM1327 1726q-125 -79 -218 -79q-41 0 -82 13q-28 8 -68 29l-63 28q-34 14 -66 14q-72 0 -150 -62l-50 103q111 86 232 86q39 0 79 -14q26 -8 66 -28q2 -2 8 -4q4 -3 7 -4q9 -5 15 -8l32 -13
q34 -13 65 -13q32 0 71 17l52 26l17 10z" />
    <glyph glyph-name="uni1EF9" unicode="&#x1ef9;" horiz-adv-x="1097" 
d="M337 -393h-149l285 430l-205 1083h152l166 -893l571 893h151zM1233 1413q-125 -80 -217 -80q-42 0 -82 13q-27 9 -69 29l-63 29q-34 13 -65 13q-73 0 -151 -61l-50 102q111 86 232 86q40 0 79 -13q26 -9 66 -29q3 -1 8 -4q5 -2 7 -4q9 -4 16 -7l31 -14q34 -13 66 -13
q31 0 71 18l51 26l18 9z" />
    </font>
</defs>
</svg>
